<?xml version="1.0" encoding="UTF-8" standalone="no"?>
<!-- Created with Inkscape (http://www.inkscape.org/) -->

<svg
   xmlns:dc="http://purl.org/dc/elements/1.1/"
   xmlns:cc="http://creativecommons.org/ns#"
   xmlns:rdf="http://www.w3.org/1999/02/22-rdf-syntax-ns#"
   xmlns:svg="http://www.w3.org/2000/svg"
   xmlns="http://www.w3.org/2000/svg"
   xmlns:sodipodi="http://sodipodi.sourceforge.net/DTD/sodipodi-0.dtd"
   xmlns:inkscape="http://www.inkscape.org/namespaces/inkscape"
   width="164px"
   height="164px"
   viewBox="0 0 164 164"
   version="1.1"
   id="SVGRoot"
   inkscape:version="0.92.1 r15371"
   sodipodi:docname="brain.svg">
  <sodipodi:namedview
     id="base"
     pagecolor="#ffffff"
     bordercolor="#666666"
     borderopacity="1.0"
     inkscape:pageopacity="0.0"
     inkscape:pageshadow="2"
     inkscape:zoom="0.7804878"
     inkscape:cx="-147.80115"
     inkscape:cy="121.44442"
     inkscape:document-units="px"
     inkscape:current-layer="layer1"
     showgrid="false"
     inkscape:window-width="960"
     inkscape:window-height="1028"
     inkscape:window-x="0"
     inkscape:window-y="24"
     inkscape:window-maximized="0"
     inkscape:grid-bbox="true" />
  <defs
     id="defs4500" />
  <metadata
     id="metadata4503">
    <rdf:RDF>
      <cc:Work
         rdf:about="">
        <dc:format>image/svg+xml</dc:format>
        <dc:type
           rdf:resource="http://purl.org/dc/dcmitype/StillImage" />
        <dc:title />
      </cc:Work>
    </rdf:RDF>
  </metadata>
  <g
     id="layer1"
     inkscape:groupmode="layer"
     inkscape:label="Layer 1">
    <g
       id="g5574-6-1-2-8"
       transform="matrix(1.5058842,0,0,1.5058842,461.47152,57.636575)"
       style="stroke-width:2.50983953">
      <path
         id="path5459-9-7-4-6"
         d="m -264.21366,68.176617 c -2.87947,-0.559896 -4.03925,-2.439543 -4.11923,-5.438982 -0.19997,-7.718554 -2.55952,-9.598202 -10.11811,-8.558397 -0.99981,0.15997 -1.99962,0.279948 -2.99944,0.399925 -6.19884,0.63988 -9.55821,-2.359558 -9.63819,-8.598389 -0.04,-3.839281 -0.04,-7.63857 -0.11998,-11.477851 -0.08,-3.639318 -1.51971,-6.198839 -5.319,-7.398614 -4.63913,-1.479723 -5.07905,-2.799476 -2.55952,-6.998689 2.43954,-4.039244 5.319,-7.79854 7.75854,-11.837783 0.79985,-1.359746 1.47973,-3.319379 1.15979,-4.719117 -2.55953,-10.877962 1.35974,-19.756299 8.27845,-27.714809 7.47859,-8.638382 17.23677,-13.037558 28.51466,-13.877401 10.23808,-0.759858 20.2762,0.239955 29.71443,4.759109 12.71762,6.078861 18.83647,16.476914 20.11623,30.27433 0.99981,10.917955 -2.43954,20.23621 -8.75836,28.954577 -3.39936,4.639131 -6.67875,9.678187 -8.59839,15.037184 -2.39955,6.598764 -1.11979,13.477476 1.83966,19.91627 1.83965,3.999251 1.55971,4.559146 -2.71949,5.958884 -14.23826,5.780254 -29.19643,3.834852 -42.43205,1.319753 z m 41.83216,-47.63108 c 5.79891,-0.15997 6.87871,-1.199775 7.9985,-7.678562 0.11998,-0.79985 0.83985,-1.519715 1.39974,-2.199588 2.95945,-3.679311 4.07924,-7.798539 2.99944,-12.397678 -1.31975,-5.558959 -5.23902,-6.518779 -9.47823,-2.639506 -0.67987,0.639881 -1.95963,0.559896 -2.99943,0.799851 0.15997,-1.079798 -0.08,-2.679498 0.5199,-3.079424 2.55952,-1.719678 5.319,-3.079423 8.63838,-4.919078 0.5599,-2.719491 0.04,-3.639319 -4.15922,-5.518967 0.27995,-2.87946 -0.91983,-4.559146 -3.99925,-4.719116 -0.35993,0 -0.87984,-0.439917 -0.99981,-0.79985 -1.03981,-3.359371 -3.27939,-4.159221 -6.71875,-4.079236 -2.71949,0.07999 -4.19921,-4.279199 -7.71855,-2.999438 -0.08,0.03999 -0.19996,0.07998 -0.27995,0.03999 -0.87983,-0.199963 -1.87965,-0.15997 -2.59951,-0.639881 -3.23939,-2.199588 -5.71893,-2.199588 -9.11829,0.199963 -0.47991,0.359933 -1.31976,0.759858 -1.71968,0.559895 -4.47916,-2.119603 -7.71856,-0.439917 -10.1581,3.359371 -3.1994,-1.399738 -6.03887,-1.27976 -8.47841,1.159783 -1.63969,1.639693 -0.71987,3.039431 0.67987,3.959258 0.5599,0.359933 1.79966,-0.439917 2.71949,-0.47991 0.87984,0 1.75967,0.31994 2.63951,0.47991 -0.27995,0.839843 -0.31994,1.999626 -0.91983,2.479536 -2.87946,2.439543 -6.23883,1.679685 -8.47841,-1.5997 -0.47991,-0.719866 -1.55971,-1.799663 -1.95964,-1.639693 -0.91982,0.359932 -1.83965,1.239767 -2.23958,2.159595 -0.43991,0.999813 -0.31994,2.239581 -0.31994,2.559521 -2.15959,1.719678 -4.15922,2.839468 -5.39898,4.479161 -2.43955,3.199401 -1.35975,8.158471 1.87964,10.438045 2.51953,1.75967 4.71912,0.95982 7.75855,-2.599514 0.47991,-0.559894 1.63969,-0.559894 2.51953,-0.799849 0.11998,0.879834 0.67987,2.159596 0.31994,2.599512 -1.75967,2.039618 -3.79929,3.879274 -5.91889,5.998877 2.95944,3.959258 7.75854,4.119228 12.55765,4.159221 0.47991,7.238644 4.71911,11.557835 10.15809,9.87815 2.55952,-0.79985 4.67913,-2.919452 7.07868,-4.31919 0.87983,-0.519903 1.99962,-0.63988 2.99944,-0.919829 -0.15997,1.119791 0.04,2.559521 -0.5599,3.279387 -2.83947,3.399363 -6.51878,5.518966 -11.27789,5.958883 1.31976,2.719491 3.43936,2.959446 5.71893,2.959446 1.03981,0 2.07961,0.279947 3.15941,0.439918 1.83966,0.279947 3.7193,0.519902 5.55896,0.839843 1.27976,0.239955 2.71949,0.359932 3.7193,1.039805 3.83928,2.639506 7.59858,2.599513 10.95795,-0.679873 1.27976,-1.279761 2.15959,-3.119416 3.51934,-5.119041 z"
         inkscape:connector-curvature="0"
         style="stroke-width:0.66406184"
         sodipodi:nodetypes="cccccccccccccccccccccccccccccccccccccsccccccccccccccccccccsccccc" />
      <path
         id="path5463-3-1-7-7"
         d="m -232.25965,8.667762 c -1.79966,-1.639693 -3.87927,-2.799476 -4.75911,-4.559146 -0.99981,-1.999626 -2.1196,-3.199401 -4.19921,-4.079236 -2.91945,-1.239768 -4.67913,-3.799289 -5.23902,-6.918705 -0.11998,-0.719865 0.67987,-1.639693 1.0398,-2.439543 0.75986,0.47991 1.95964,0.79985 2.1596,1.479723 1.0798,3.319378 3.03943,5.279011 6.63876,5.678937 0.75985,0.07999 1.87964,1.319752 1.95963,2.119603 0.23995,2.359558 0.91983,3.999251 3.43936,4.639131 0.59988,0.15997 1.51971,1.399738 1.35974,1.879648 -0.11998,0.63988 -1.15978,1.11979 -2.39955,2.199588 z"
         inkscape:connector-curvature="0"
         style="stroke-width:0.66406184" />
      <path
         id="path5465-7-1-6-0"
         d="m -234.81917,-20.726733 c -0.35993,-0.919828 -0.91983,-1.799663 -1.03981,-2.719491 -0.08,-0.759857 0.19997,-1.91964 0.67988,-2.199588 0.5199,-0.279947 2.1196,0.199963 2.19958,0.559895 0.83985,3.559334 3.51935,4.399176 6.55878,5.358997 1.51971,0.47991 2.75948,2.199588 3.83928,3.599326 0.35993,0.47991 -0.23996,1.719677 -0.39993,2.599513 -0.83984,-0.31994 -2.07961,-0.359933 -2.47953,-0.959821 -2.19959,-3.03943 -5.15904,-3.159408 -8.35844,-2.439543 -1.43973,0.31994 -3.27938,1.799663 -3.95926,-0.519902 -0.23995,-0.799851 1.35975,-2.159596 2.1596,-3.239394 0.23995,0 0.5199,-0.03999 0.79985,-0.03999 z"
         inkscape:connector-curvature="0"
         style="stroke-width:0.66406184" />
      <path
         id="path5467-4-1-5-4"
         d="m -246.61696,-22.326433 c 0,4.719116 -4.91908,9.318254 -9.39824,8.918329 -0.63988,-0.03999 -1.75967,-0.719865 -1.75967,-1.11979 0,-0.719865 0.5199,-1.719678 1.11979,-2.079611 0.99981,-0.599887 2.31957,-0.63988 3.35937,-1.11979 2.27957,-1.079798 3.59933,-2.839468 2.95945,-5.518966 -0.31994,-1.399738 -0.95982,-3.079424 1.07979,-3.239394 0.71987,-0.03999 1.6397,1.679686 2.35956,2.679499 0.31994,0.47991 0.23996,1.159782 0.27995,1.479723 z"
         inkscape:connector-curvature="0"
         style="stroke-width:0.66406184" />
      <path
         id="path5469-5-7-7-8"
         d="m -230.9399,24.624773 c -4.07923,0.03999 -7.19865,-1.91964 -8.35843,-5.199026 -0.31994,-0.879835 0.27995,-2.039618 0.47991,-3.079423 0.83984,0.47991 2.03962,0.759857 2.51953,1.479723 2.15959,3.279385 3.43935,3.719303 7.27863,2.799475 0.99982,-0.239955 2.19959,0.359933 3.31938,0.599888 -0.79985,0.919828 -1.39974,2.119603 -2.39955,2.719491 -0.99981,0.559895 -2.31956,0.559895 -2.83947,0.679872 z"
         inkscape:connector-curvature="0"
         style="stroke-width:0.66406184" />
      <path
         id="path5471-2-0-1-4"
         d="m -257.6149,-3.250006 c 0.79985,-1.759671 1.71968,-4.159221 2.95944,-6.358809 0.31995,-0.519903 1.67969,-0.439918 2.55953,-0.63988 0.08,0.879835 0.5199,1.999625 0.15997,2.599513 -1.43973,2.319565 -2.31957,4.559146 -1.55971,7.358622 0.19996,0.719865 -0.67987,1.719677 -1.0798,2.599513 -0.75986,-0.599888 -1.75967,-1.079798 -2.19959,-1.839656 -0.47991,-0.79985 -0.43992,-1.91964 -0.83984,-3.719303 z"
         inkscape:connector-curvature="0"
         style="stroke-width:0.66406184" />
    </g>
  </g>
</svg>
