<?xml version="1.0" encoding="UTF-8" standalone="no"?>
<!-- Created with Inkscape (http://www.inkscape.org/) -->

<svg
   xmlns:dc="http://purl.org/dc/elements/1.1/"
   xmlns:cc="http://creativecommons.org/ns#"
   xmlns:rdf="http://www.w3.org/1999/02/22-rdf-syntax-ns#"
   xmlns:svg="http://www.w3.org/2000/svg"
   xmlns="http://www.w3.org/2000/svg"
   xmlns:sodipodi="http://sodipodi.sourceforge.net/DTD/sodipodi-0.dtd"
   xmlns:inkscape="http://www.inkscape.org/namespaces/inkscape"
   width="164px"
   height="164px"
   viewBox="0 0 164 164"
   version="1.1"
   id="SVGRoot"
   inkscape:version="0.92.1 r15371"
   sodipodi:docname="climb.svg">
  <sodipodi:namedview
     id="base"
     pagecolor="#ffffff"
     bordercolor="#666666"
     borderopacity="1.0"
     inkscape:pageopacity="0.0"
     inkscape:pageshadow="2"
     inkscape:zoom="1.5609756"
     inkscape:cx="-58.719931"
     inkscape:cy="190.67088"
     inkscape:document-units="px"
     inkscape:current-layer="layer1"
     showgrid="false"
     inkscape:window-width="960"
     inkscape:window-height="1028"
     inkscape:window-x="960"
     inkscape:window-y="24"
     inkscape:window-maximized="0"
     inkscape:grid-bbox="true" />
  <defs
     id="defs4500" />
  <metadata
     id="metadata4503">
    <rdf:RDF>
      <cc:Work
         rdf:about="">
        <dc:format>image/svg+xml</dc:format>
        <dc:type
           rdf:resource="http://purl.org/dc/dcmitype/StillImage" />
        <dc:title />
      </cc:Work>
    </rdf:RDF>
  </metadata>
  <g
     id="layer1"
     inkscape:groupmode="layer"
     inkscape:label="Layer 1">
    <path
       style="fill:#000000;stroke-width:1"
       d="m 125.42714,163.16929 -0.78043,-0.83071 -0.0835,-49.54995 c -0.0459,-27.252481 -0.17293,-49.549959 -0.28222,-49.549959 -0.10929,0 -2.59832,1.472568 -5.53117,3.272379 -8.20316,5.034039 -8.06821,5.056616 -19.617721,-3.281626 -4.38085,-3.162778 -8.05752,-5.649692 -8.17037,-5.526477 -0.11285,0.123207 -1.91804,7.290978 -4.01154,15.928362 l -3.80634,15.704345 10.66018,10.693196 c 5.8631,5.88125 10.927731,11.20022 11.254751,11.81992 0.4901,0.92872 0.59123,1.83385 0.5755,5.15074 -0.0178,3.748 -0.24348,5.17223 -3.29037,20.76391 -3.898281,19.94841 -4.756511,22.85912 -7.315631,24.81105 -2.06279,1.57336 -4.81113,0.62561 -6.1835,-2.13233 -1.34968,-2.71235 -1.29791,-5.59301 0.39701,-22.09448 0.83993,-8.17739 1.44948,-15.07039 1.35455,-15.31776 -0.0949,-0.24737 -6.02437,-5.38041 -13.17652,-11.40675 -7.15216,-6.02634 -13.94139,-11.984136 -15.08718,-13.239542 -4.4803,-4.908955 -5.54372,-9.514876 -4.02639,-17.439275 0.6842,-3.573356 11.12626,-40.96538 11.85256,-42.44291 0.90961,-1.850449 2.48679,-3.036419 4.03421,-3.033546 0.65987,0.0016 4.89379,1.041746 9.40874,2.312268 9.43469,2.654964 7.56691,1.644241 20.425241,11.052749 l 8.99703,6.583176 3.07501,-1.439698 c 1.69126,-0.791831 4.27015,-1.994838 5.73086,-2.673346 l 2.65585,-1.233646 v -5.278838 c 0,-4.965812 0.0436,-5.343694 0.73609,-6.372683 1.49839,-2.22664 4.69474,-2.279286 6.04192,-0.09951 0.52313,0.846452 0.62618,1.609095 0.62618,4.634349 0,3.600773 0.004,3.620019 0.72432,3.418293 0.39838,-0.111577 1.31892,-0.290139 2.04564,-0.396802 3.38435,-0.496729 6.04021,3.006237 4.49807,5.932746 -0.57709,1.095127 -3.36747,3.771786 -5.57794,5.350616 l -1.69009,1.207135 v 51.656924 c 0,44.70723 -0.0634,51.77945 -0.47097,52.56769 -0.58597,1.13312 -1.04151,1.3107 -3.3623,1.3107 -1.57149,0 -1.96624,-0.12471 -2.62952,-0.83071 z m -86.470911,-2.06883 c -0.96572,-0.3891 -1.38921,-1.3039 -1.38921,-3.00092 0,-2.24369 1.06895,-5.19132 4.7336,-13.05296 1.86725,-4.00574 5.05153,-11.04964 7.07619,-15.65311 l 3.68118,-8.36995 1.2918,-9.17475 c 0.71049,-5.04612 1.35778,-9.3784 1.43841,-9.6273 0.0909,-0.28072 0.37769,6.5e-4 0.75527,0.74131 1.6151,3.16793 4.99919,6.57142 11.20366,11.26789 1.81483,1.37374 3.29969,2.63795 3.29969,2.80935 0,0.17143 -0.58441,2.22432 -1.29871,4.562 -1.50146,4.91389 -2.00122,5.83391 -9.69742,17.85219 -7.94084,12.40031 -9.80362,15.07071 -12.45265,17.85159 -3.35187,3.51869 -6.21089,4.7741 -8.64181,3.79466 z m -0.26249,-80.63064 c -6.903,-1.604459 -12.60723,-5.220756 -13.81191,-8.756314 -2.02626,-5.946735 2.30646,-16.248226 11.83141,-28.130377 3.96123,-4.941546 7.32117,-7.983238 10.57217,-9.570785 3.47184,-1.695393 6.68386,-2.455653 9.51811,-2.252866 2.55272,0.182644 3.92759,0.808751 4.96269,2.259983 0.63025,0.88363 0.7469,1.435789 0.73212,3.46551 -0.0162,2.224265 -0.46594,3.806131 -5.7107,20.086003 -5.42283,16.832552 -6.47094,19.620591 -7.83952,20.853437 -2.25345,2.02995 -6.595,2.89595 -10.25437,2.045409 z m 47.31107,-50.863295 c -6.62002,-2.092463 -10.77731,-7.592176 -10.83531,-14.334113 -0.0598,-6.9558262 3.83344,-12.4369372 10.43011,-14.68388521 2.10544,-0.717147 6.52394,-0.792761 8.78651,-0.150362 5.52588,1.56893701 9.978701,6.64355901 10.797701,12.30551021 1.0871,7.515444 -3.50842,14.721324 -10.726731,16.819746 -2.1136,0.614444 -6.57278,0.637184 -8.45228,0.0431 z"
       id="path4495"
       inkscape:connector-curvature="0" />
  </g>
</svg>
