<?xml version="1.0" encoding="UTF-8" standalone="no"?>
<!-- Created with Inkscape (http://www.inkscape.org/) -->

<svg
   xmlns:dc="http://purl.org/dc/elements/1.1/"
   xmlns:cc="http://creativecommons.org/ns#"
   xmlns:rdf="http://www.w3.org/1999/02/22-rdf-syntax-ns#"
   xmlns:svg="http://www.w3.org/2000/svg"
   xmlns="http://www.w3.org/2000/svg"
   xmlns:sodipodi="http://sodipodi.sourceforge.net/DTD/sodipodi-0.dtd"
   xmlns:inkscape="http://www.inkscape.org/namespaces/inkscape"
   width="164px"
   height="164px"
   viewBox="0 0 164 164"
   version="1.1"
   id="SVGRoot"
   inkscape:version="0.92.1 r15371"
   sodipodi:docname="graduation-cap.svg">
  <sodipodi:namedview
     id="base"
     pagecolor="#ffffff"
     bordercolor="#666666"
     borderopacity="1.0"
     inkscape:pageopacity="0.0"
     inkscape:pageshadow="2"
     inkscape:zoom="1.5609756"
     inkscape:cx="95.132813"
     inkscape:cy="82"
     inkscape:document-units="px"
     inkscape:current-layer="layer1"
     showgrid="false"
     inkscape:window-width="960"
     inkscape:window-height="1028"
     inkscape:window-x="0"
     inkscape:window-y="24"
     inkscape:window-maximized="0"
     inkscape:grid-bbox="true" />
  <defs
     id="defs4500" />
  <metadata
     id="metadata4503">
    <rdf:RDF>
      <cc:Work
         rdf:about="">
        <dc:format>image/svg+xml</dc:format>
        <dc:type
           rdf:resource="http://purl.org/dc/dcmitype/StillImage" />
        <dc:title />
      </cc:Work>
    </rdf:RDF>
  </metadata>
  <g
     id="layer1"
     inkscape:groupmode="layer"
     inkscape:label="Layer 1">
    <path
       style="fill:#000000;stroke-width:3.7795279"
       d="m 14.374029,146.10015 c -0.377995,-0.49496 -0.690068,-1.43606 -0.693488,-2.09134 -0.003,-0.65528 0.877329,-9.10386 1.957213,-18.77457 l 1.963415,-17.58317 -1.287801,-1.60779 c -1.914381,-2.39007 -2.626611,-4.42489 -2.626611,-7.50409 0,-3.471334 0.837087,-5.85452 2.841685,-8.090181 1.5289,-1.705112 1.592955,-1.913263 2.055735,-6.680712 0.672145,-6.924255 1.884058,-12.051499 4.129034,-17.468652 1.065505,-2.571105 1.946526,-4.862632 1.957826,-5.092334 0.01103,-0.229566 -5.295978,-2.39822 -11.79395,-4.819027 C 6.3790987,53.967485 0.81957915,51.747872 0.52258695,51.455806 c -0.7091069,-0.697347 -0.6927839,-3.092174 0.02589,-3.798935 C 1.0075889,47.205361 65.490486,22.886481 78.489198,18.262511 l 3.549118,-1.26251 40.439224,15.06568 c 22.24159,8.28613 40.68676,15.309149 40.98932,15.606668 0.7014,0.689753 0.71386,3.091412 0.0188,3.77416 -0.29179,0.286931 -18.7361,7.30705 -40.98742,15.600233 L 82.042275,82.12528 58.765602,73.46646 C 45.963438,68.704126 35.280823,64.811203 35.02646,64.81553 c -0.876609,0.01498 -2.749553,2.72211 -4.129203,5.968378 -1.653742,3.89121 -3.084577,10.213836 -3.383825,14.952739 -0.216349,3.42598 -0.210364,3.450721 1.114553,4.600274 3.727871,3.234544 3.875959,11.849219 0.271296,15.783549 -0.639294,0.69778 -1.091984,1.71907 -1.090571,2.46041 0.0013,0.6971 0.841877,8.57475 1.867904,17.50594 1.026016,8.93115 1.865869,16.92382 1.866338,17.76146 0.0016,2.91691 -0.668877,3.15172 -8.999773,3.15172 -6.720799,0 -7.551641,-0.0914 -8.169025,-0.89985 z M 73.07136,124.83774 c -17.475307,-1.78848 -31.179478,-7.86447 -35.361374,-15.67818 -1.082332,-2.02226 -1.181087,-2.58951 -1.160574,-6.6657 0.02824,-5.617343 0.983825,-24.756636 1.251859,-25.074226 0.110182,-0.130599 9.352467,3.219588 20.538358,7.444866 19.333936,7.303041 20.501991,7.681541 23.660188,7.667254 3.124046,-0.01498 4.535373,-0.472287 23.661043,-7.681272 11.18638,-4.216412 20.42601,-7.562966 20.53253,-7.4367 0.25932,0.307241 1.22377,19.49557 1.25469,24.962718 0.0141,2.38591 -0.18943,4.82167 -0.4508,5.41283 -3.35097,7.57674 -14.8159,13.75596 -30.257775,16.30806 -5.64859,0.93352 -18.004122,1.32002 -23.668145,0.74035 z"
       id="path5894"
       inkscape:connector-curvature="0" />
  </g>
</svg>
