<?xml version="1.0" encoding="UTF-8" standalone="no"?>
<!-- Created with Inkscape (http://www.inkscape.org/) -->

<svg
   xmlns:dc="http://purl.org/dc/elements/1.1/"
   xmlns:cc="http://creativecommons.org/ns#"
   xmlns:rdf="http://www.w3.org/1999/02/22-rdf-syntax-ns#"
   xmlns:svg="http://www.w3.org/2000/svg"
   xmlns="http://www.w3.org/2000/svg"
   xmlns:sodipodi="http://sodipodi.sourceforge.net/DTD/sodipodi-0.dtd"
   xmlns:inkscape="http://www.inkscape.org/namespaces/inkscape"
   width="164px"
   height="164px"
   viewBox="0 0 164 164"
   version="1.1"
   id="SVGRoot"
   inkscape:version="0.92.1 r15371"
   sodipodi:docname="meditation.svg">
  <sodipodi:namedview
     id="base"
     pagecolor="#ffffff"
     bordercolor="#666666"
     borderopacity="1.0"
     inkscape:pageopacity="0.0"
     inkscape:pageshadow="2"
     inkscape:zoom="0.7804878"
     inkscape:cx="82.183222"
     inkscape:cy="121.44442"
     inkscape:document-units="px"
     inkscape:current-layer="layer1"
     showgrid="false"
     inkscape:window-width="960"
     inkscape:window-height="1028"
     inkscape:window-x="0"
     inkscape:window-y="24"
     inkscape:window-maximized="0"
     inkscape:grid-bbox="true" />
  <defs
     id="defs4500" />
  <metadata
     id="metadata4503">
    <rdf:RDF>
      <cc:Work
         rdf:about="">
        <dc:format>image/svg+xml</dc:format>
        <dc:type
           rdf:resource="http://purl.org/dc/dcmitype/StillImage" />
        <dc:title />
      </cc:Work>
    </rdf:RDF>
  </metadata>
  <g
     id="layer1"
     inkscape:groupmode="layer"
     inkscape:label="Layer 1">
    <path
       inkscape:connector-curvature="0"
       id="path4775"
       d="m 114.34244,163.79758 c -0.47976,-0.1046 -3.62236,-0.7849 -6.98315,-1.51155 -9.05962,-1.959 -38.207099,-9.17936 -49.264779,-12.20361 -27.49249,-7.51979 -36.49694,-12.05165 -36.49694,-18.36814 0,-2.06813 2.32627,-6.58526 4.63022,-8.98922 1.84527,-1.92644 1.92771,-1.96129 3.97226,-1.6811 2.27607,0.31194 8.91737,3.22441 24.21105,10.61712 19.265635,9.31261 21.206982,9.7713 32.871488,7.76646 5.564636,-0.95631 19.242701,-1.34305 23.821791,-0.67356 11.59012,1.69469 17.98783,6.64066 17.29329,13.36888 -0.74691,7.2319 -7.74989,13.0494 -14.05523,11.67472 z m -73.186049,-2.73132 c -4.69438,-1.83525 -7.33863,-4.71192 -7.33863,-7.98234 0,-2.25979 0.78937,-2.69876 4.26576,-2.37311 5.39139,0.50505 20.64913,4.67021 22.58675,6.16587 0.81571,0.63009 0.82098,0.69757 0.0992,1.25981 -1.7588,1.36739 -12.12939,3.79986 -15.98667,3.74999 -0.86902,-0.0124 -2.50044,-0.38033 -3.62483,-0.82022 z M 130.93097,141.755 c -0.66261,-0.52154 -1.64786,-1.39052 -2.18836,-1.93111 -1.69309,-1.69272 -6.10265,-3.61601 -11.40386,-4.97359 -2.80881,-0.7191 -5.60337,-1.63375 -6.21206,-2.03255 l -1.10673,-0.7251 1.72503,-1.50203 c 1.63823,-1.42656 18.92316,-10.22723 21.21875,-10.80322 0.93968,-0.23567 1.58896,0.25763 4.85492,3.68989 4.68446,4.92272 5.1949,6.22383 4.09468,10.44537 -0.91799,3.52645 -2.66564,6.46919 -4.62651,7.79031 -1.94506,1.31084 -4.71948,1.32918 -6.35586,0.0421 z m -58.705595,-7.08764 c -1.560453,-0.56103 -4.800994,-1.89876 -7.201334,-2.97275 -7.18614,-3.21492 -32.68677,-15.29658 -33.33916,-15.79519 -0.50548,-0.38604 -0.56374,-3.03501 -0.35144,-15.9624 0.30992,-18.888371 0.91488,-23.594304 3.79467,-29.504936 3.34715,-6.869869 10.23732,-10.392105 23.56827,-12.04853 6.32611,-0.786011 39.976434,-0.786814 46.136429,-8.2e-4 8.70476,1.110362 14.45441,3.398211 17.64227,7.020004 2.42327,2.752903 5.43849,9.090167 6.66888,14.015823 2.45086,9.81167 2.67059,24.147729 0.48534,31.669869 -1.39123,4.78932 -2.80231,5.88181 -16.37748,12.67569 -12.85243,6.43285 -21.966288,10.24244 -22.711339,9.4937 -0.671909,-0.67524 -2.67524,-11.63046 -2.39786,-13.11076 0.145663,-0.77785 0.86158,-2.01019 1.589586,-2.73856 0.74536,-0.74551 6.108237,-3.7284 12.271643,-6.82511 l 10.94735,-5.50085 -0.27273,-8.169188 c -0.28823,-8.564457 -0.812,-12.288733 -1.85643,-13.155268 -1.54837,-1.284931 -2.51161,1.365989 -3.43765,9.463604 -1.00848,8.816842 -1.54216,9.405222 -16.031605,17.684942 l -9.658696,5.51941 -2.660674,-1.43209 c -1.463448,-0.78784 -5.9009,-3.14354 -9.861694,-5.23508 -12.01441,-6.34429 -13.26804,-7.70258 -14.57467,-15.787891 -0.86561,-5.35961 -1.38473,-7.159584 -2.57234,-8.922002 -1.19599,-1.774881 -1.89951,-1.860834 -3.01398,-0.368147 -1.04445,1.398322 -1.7523,7.875608 -1.57131,14.36772 l 0.12707,4.57275 10.3492,5.72894 c 22.19439,12.28731 26.09444,15.20398 26.09444,19.5185 0,1.87683 -1.821098,4.91907 -3.669468,6.13032 -1.544648,1.01192 -4.741795,0.88127 -8.114358,-0.33166 z m 4.163172,-82.327928 c -6.781387,-1.06588 -12.276596,-3.6368 -16.163016,-7.56164 -7.64389,-7.71883 -9.34846,-19.80747 -4.20067,-29.79816 C 60.576981,6.1442716 70.444258,1.6053588e-6 80.081569,1.6053588e-6 c 8.93565,0 18.504778,5.2975699946412 23.484281,13.0016503946412 2.89064,4.47201 3.78972,7.70929 3.77949,13.6065 0,4.32185 -0.17046,5.46386 -1.16716,8.22031 -1.54836,4.28242 -3.48724,7.41352 -6.848022,11.05969 -2.923177,3.17153 -5.618253,4.85269 -9.429044,5.88181 -2.866462,0.77425 -10.23422,1.08475 -13.512567,0.56947 z"
       style="fill:#000000;fill-opacity:1;stroke-width:3.7795279" />
  </g>
</svg>
