<?xml version="1.0" encoding="UTF-8" standalone="no"?>
<!-- Created with Inkscape (http://www.inkscape.org/) -->

<svg
   xmlns:dc="http://purl.org/dc/elements/1.1/"
   xmlns:cc="http://creativecommons.org/ns#"
   xmlns:rdf="http://www.w3.org/1999/02/22-rdf-syntax-ns#"
   xmlns:svg="http://www.w3.org/2000/svg"
   xmlns="http://www.w3.org/2000/svg"
   xmlns:sodipodi="http://sodipodi.sourceforge.net/DTD/sodipodi-0.dtd"
   xmlns:inkscape="http://www.inkscape.org/namespaces/inkscape"
   width="164px"
   height="164px"
   viewBox="0 0 164 164"
   version="1.1"
   id="SVGRoot"
   inkscape:version="0.92.1 r15371"
   sodipodi:docname="mood.svg">
  <sodipodi:namedview
     id="base"
     pagecolor="#ffffff"
     bordercolor="#666666"
     borderopacity="1.0"
     inkscape:pageopacity="0.0"
     inkscape:pageshadow="2"
     inkscape:zoom="1.7422451"
     inkscape:cx="77.852489"
     inkscape:cy="-90.269621"
     inkscape:document-units="px"
     inkscape:current-layer="layer1"
     showgrid="false"
     inkscape:window-width="960"
     inkscape:window-height="1028"
     inkscape:window-x="960"
     inkscape:window-y="24"
     inkscape:window-maximized="0"
     inkscape:grid-bbox="true" />
  <defs
     id="defs4500" />
  <metadata
     id="metadata4503">
    <rdf:RDF>
      <cc:Work
         rdf:about="">
        <dc:format>image/svg+xml</dc:format>
        <dc:type
           rdf:resource="http://purl.org/dc/dcmitype/StillImage" />
        <dc:title />
      </cc:Work>
    </rdf:RDF>
  </metadata>
  <g
     id="layer1"
     inkscape:groupmode="layer"
     inkscape:label="Layer 1">
    <path
       style="fill:#000000;stroke-width:1"
       d="M 67.329214,162.83601 C 50.151652,159.66672 35.092924,151.50879 22.916138,138.7756 8.5548082,123.75807 1.1794312,106.76783 0.11617951,86.252626 -3.1627144,22.987056 63.597766,-19.820214 120.05108,9.3495563 138.87975,19.904966 151.8283,37.876666 158.26136,52.000666 c 5.89062,12.97316 7.46606,33.83822 3.69904,48.989724 -5.30702,21.3456 -19.065,40.13933 -37.56198,51.31059 -7.70273,4.65208 -20.90171,9.50646 -29.638067,10.90043 -7.48691,1.19461 -19.869882,1.02966 -27.431139,-0.3654 z M 40.691189,128.99553 c 3.319269,-4.81979 10.533537,-11.32095 16.174848,-14.576 21.365181,-12.32776 49.625793,-6.76412 65.014803,12.79939 4.91841,6.2526 7.83657,7.29848 9.59655,3.4394 0.79077,-1.73391 0.6776,-2.59953 -0.59715,-4.56751 -11.04527,-17.05156 -32.185027,-27.516394 -52.636282,-26.05654 -9.158655,0.65375 -15.064498,2.3462 -23.603442,6.76406 -7.452214,3.85561 -14.865036,10.07772 -19.465369,16.33866 -3.250255,4.42352 -3.833984,6.85393 -2.069538,8.6167 2.152303,2.15025 4.891102,1.15441 7.58558,-2.75816 z M 52.591172,68.508846 c 6.750653,-3.0631 8.225884,-11.0414 3.101146,-16.77153 -1.918788,-2.14545 -3.277576,-2.76756 -6.778899,-3.10367 -3.973414,-0.38144 -4.672002,-0.16343 -7.541061,2.35323 -7.693859,6.74888 -3.735308,17.8311 6.798604,19.03314 0.478956,0.0546 2.468051,-0.62537 4.42021,-1.51117 z m 69.164898,-0.83916 c 1.19739,-0.84666 2.89809,-2.98845 3.77934,-4.75953 1.4291,-2.87213 1.47616,-3.61546 0.43541,-6.87783 -1.46745,-4.59998 -5.64945,-7.62475 -10.54179,-7.62475 -4.98861,0 -10.21873,5.22513 -10.21873,10.20899 0,8.91165 9.44059,14.07712 16.54577,9.05312 z"
       id="path4540"
       inkscape:connector-curvature="0"
       sodipodi:nodetypes="sssccsscssssscssscssscscscccssc" />
  </g>
</svg>
