<?xml version="1.0" encoding="UTF-8" standalone="no"?>
<!-- Created with Inkscape (http://www.inkscape.org/) -->

<svg
   xmlns:dc="http://purl.org/dc/elements/1.1/"
   xmlns:cc="http://creativecommons.org/ns#"
   xmlns:rdf="http://www.w3.org/1999/02/22-rdf-syntax-ns#"
   xmlns:svg="http://www.w3.org/2000/svg"
   xmlns="http://www.w3.org/2000/svg"
   xmlns:sodipodi="http://sodipodi.sourceforge.net/DTD/sodipodi-0.dtd"
   xmlns:inkscape="http://www.inkscape.org/namespaces/inkscape"
   width="164px"
   height="164px"
   viewBox="0 0 164 164"
   version="1.1"
   id="SVGRoot"
   inkscape:version="0.92.1 r15371"
   sodipodi:docname="mountain.svg">
  <sodipodi:namedview
     id="base"
     pagecolor="#ffffff"
     bordercolor="#666666"
     borderopacity="1.0"
     inkscape:pageopacity="0.0"
     inkscape:pageshadow="2"
     inkscape:zoom="0.7804878"
     inkscape:cx="-17.447642"
     inkscape:cy="121.47658"
     inkscape:document-units="px"
     inkscape:current-layer="layer1"
     showgrid="false"
     inkscape:window-width="960"
     inkscape:window-height="1028"
     inkscape:window-x="0"
     inkscape:window-y="24"
     inkscape:window-maximized="0"
     inkscape:grid-bbox="true" />
  <defs
     id="defs4500" />
  <metadata
     id="metadata4503">
    <rdf:RDF>
      <cc:Work
         rdf:about="">
        <dc:format>image/svg+xml</dc:format>
        <dc:type
           rdf:resource="http://purl.org/dc/dcmitype/StillImage" />
        <dc:title />
      </cc:Work>
    </rdf:RDF>
  </metadata>
  <g
     id="layer1"
     inkscape:groupmode="layer"
     inkscape:label="Layer 1">
    <path
       style="fill:#000000;stroke-width:1"
       d="m 3.771485,132.51763 c 2.07432,-3.93678 9.675672,-18.35865 16.891903,-32.0486 l 13.120411,-24.890813 3.621861,1.89382 c 2.275462,1.18981 5.209557,2.00866 7.89283,2.20275 3.67059,0.26551 4.92193,-0.0115 8.901766,-1.9708 5.759742,-2.83551 7.862315,-2.84932 13.695164,-0.0899 6.16568,2.91684 10.596375,2.94406 16.235313,0.0997 l 4.145909,-2.09124 1.707461,3.00389 c 2.882132,5.07049 31.823737,60.229773 31.823737,60.652303 0,0.21818 -27.406761,0.3967 -60.90392,0.3967 H 0 Z m 128.626595,5.14995 c -0.6459,-1.10432 -6.18466,-11.53601 -12.30836,-23.18153 l -11.13401,-21.173685 2.84996,-1.642785 c 3.66011,-2.109783 5.24677,-2.067778 10.3626,0.27433 4.67722,2.141295 9.26346,2.105197 13.54058,-0.106584 1.26362,-0.653441 2.39747,-1.081712 2.51967,-0.951713 0.12221,0.130007 5.97078,11.160897 12.99684,24.513097 L 164,139.67543 h -15.21379 -15.21378 z m -30.01982,-56.629353 -1.15279,-2.41741 7.55321,-14.32873 c 4.15426,-7.88081 7.76794,-14.10336 8.0304,-13.82791 0.26245,0.27546 4.09948,7.3815 8.52673,15.7912 7.29124,13.84993 7.93412,15.37816 6.82409,16.22211 -1.89596,1.4415 -4.8377,1.15161 -8.59685,-0.84715 -4.48724,-2.38589 -8.9217,-2.38364 -14.05734,0.007 -5.06088,2.35596 -5.74567,2.29839 -7.12745,-0.59924 z m -61.485039,-12.9395 -2.425964,-1.47906 3.960838,-7.46227 c 2.17846,-4.10425 7.203911,-13.62271 11.167669,-21.15215 3.963757,-7.52943 7.38003,-13.68574 7.591717,-13.68068 0.211686,0.005 3.422355,5.83695 7.134818,12.95975 3.712465,7.12281 8.688411,16.64138 11.057666,21.15239 l 4.307727,8.20183 -2.382324,1.47235 c -3.281884,2.02831 -7.110173,1.87132 -11.078631,-0.45436 -2.369898,-1.38885 -4.648233,-2.02062 -8.16141,-2.26308 -4.391252,-0.30307 -5.296664,-0.11234 -9.146095,1.92671 -5.004678,2.65098 -8.575651,2.88217 -12.026011,0.77857 z"
       id="path4495"
       inkscape:connector-curvature="0" />
  </g>
</svg>
