<?xml version="1.0" encoding="UTF-8" standalone="no"?>
<!-- Created with Inkscape (http://www.inkscape.org/) -->

<svg
   xmlns:dc="http://purl.org/dc/elements/1.1/"
   xmlns:cc="http://creativecommons.org/ns#"
   xmlns:rdf="http://www.w3.org/1999/02/22-rdf-syntax-ns#"
   xmlns:svg="http://www.w3.org/2000/svg"
   xmlns="http://www.w3.org/2000/svg"
   xmlns:sodipodi="http://sodipodi.sourceforge.net/DTD/sodipodi-0.dtd"
   xmlns:inkscape="http://www.inkscape.org/namespaces/inkscape"
   width="164px"
   height="164px"
   viewBox="0 0 164 164"
   version="1.1"
   id="SVGRoot"
   inkscape:version="0.92.1 r15371"
   sodipodi:docname="question-mark.svg">
  <sodipodi:namedview
     id="base"
     pagecolor="#ffffff"
     bordercolor="#666666"
     borderopacity="1.0"
     inkscape:pageopacity="0.0"
     inkscape:pageshadow="2"
     inkscape:zoom="0.7804878"
     inkscape:cx="-171.959"
     inkscape:cy="241.64994"
     inkscape:document-units="px"
     inkscape:current-layer="layer1"
     showgrid="false"
     inkscape:window-width="960"
     inkscape:window-height="1028"
     inkscape:window-x="960"
     inkscape:window-y="24"
     inkscape:window-maximized="0"
     inkscape:grid-bbox="true" />
  <defs
     id="defs4500" />
  <metadata
     id="metadata4503">
    <rdf:RDF>
      <cc:Work
         rdf:about="">
        <dc:format>image/svg+xml</dc:format>
        <dc:type
           rdf:resource="http://purl.org/dc/dcmitype/StillImage" />
        <dc:title />
      </cc:Work>
    </rdf:RDF>
  </metadata>
  <g
     id="layer1"
     inkscape:groupmode="layer"
     inkscape:label="Layer 1">
    <path
       style="fill:#000000;stroke-width:1"
       d="m 75.059476,163.6259 c -6.64152,-1.48365 -11.65657,-6.00419 -13.79254,-12.43251 -0.58803,-1.76972 -0.69707,-2.58937 -0.70768,-5.3197 -0.0105,-2.70697 0.0902,-3.53138 0.62421,-5.11044 2.22502,-6.57912 6.73165,-10.84564 13.23721,-12.53196 6.00956,-1.55776 13.13284,0.59791 17.39845,5.26516 3.06417,3.3527 4.58101,6.95654 4.81503,11.43999 0.24963,4.78245 -1.14128,8.90732 -4.24819,12.59831 -4.20749,4.99851 -11.20524,7.45857 -17.32649,6.09115 z m -1.34485,-50.93416 c -4.81167,-1.38264 -8.34084,-5.21795 -9.71342,-10.55599 -0.34053,-1.32436 -0.41081,-2.488471 -0.30671,-5.080173 0.11734,-2.921382 0.25936,-3.732349 1.08331,-6.186314 2.5377,-7.557942 6.65326,-12.252009 19.69106,-22.459018 10.08811,-7.897749 13.66764,-11.571959 15.984404,-16.407184 1.41417,-2.951451 1.76074,-4.579598 1.74626,-8.203596 -0.0148,-3.692862 -0.46857,-5.672604 -2.03076,-8.859299 -2.130274,-4.345532 -6.273224,-7.419242 -12.064234,-8.950617 -1.96536,-0.519718 -2.96577,-0.604574 -7.12771,-0.604574 -4.15839,0 -5.16403,0.08516 -7.12771,0.603565 -3.54406,0.93562 -6.46522,2.525538 -8.73053,4.751822 -2.51811,2.474728 -3.6293,4.229281 -6.99301,11.041828 -3.07592,6.229692 -4.78948,8.637 -7.3941,10.387661 -2.67309,1.796686 -6.5934,2.588647 -10.44493,2.110037 -3.98321,-0.494973 -6.56218,-1.707952 -8.95895,-4.213744 -2.57326,-2.690283 -3.32908,-4.937017 -3.28447,-9.763295 0.0718,-7.771175 2.94597,-14.61778 9.15599,-21.810923 5.25362,-6.085324 12.01758,-10.6828984 21.45318,-14.5820687 7.4054,-3.06020539 18.41651,-4.51396839 27.83843,-3.67541339 21.720524,1.93313529 36.271584,9.78580109 44.841294,24.19916109 1.97363,3.319439 3.89184,9.89559 4.39356,15.062339 0.75665,7.792002 -0.31385,14.138622 -3.42528,20.307253 -2.30449,4.568801 -4.75199,7.810849 -9.34047,12.372752 -4.37135,4.34602 -6.67851,6.222292 -15.22046,12.377913 -10.803904,7.785656 -11.951074,9.046765 -14.925414,16.407758 -2.81576,6.96849 -4.37372,9.22044 -7.40381,10.70171 -3.07634,1.50389 -8.409,1.97279 -11.69552,1.02841 z"
       id="path4494"
       inkscape:connector-curvature="0" />
  </g>
</svg>
