<?xml version="1.0" encoding="UTF-8" standalone="no"?>
<!-- Created with Inkscape (http://www.inkscape.org/) -->

<svg
   xmlns:dc="http://purl.org/dc/elements/1.1/"
   xmlns:cc="http://creativecommons.org/ns#"
   xmlns:rdf="http://www.w3.org/1999/02/22-rdf-syntax-ns#"
   xmlns:svg="http://www.w3.org/2000/svg"
   xmlns="http://www.w3.org/2000/svg"
   xmlns:sodipodi="http://sodipodi.sourceforge.net/DTD/sodipodi-0.dtd"
   xmlns:inkscape="http://www.inkscape.org/namespaces/inkscape"
   width="164px"
   height="164px"
   viewBox="0 0 164 164"
   version="1.1"
   id="SVGRoot"
   inkscape:version="0.92.1 r15371"
   sodipodi:docname="relationship.svg">
  <sodipodi:namedview
     id="base"
     pagecolor="#ffffff"
     bordercolor="#666666"
     borderopacity="1.0"
     inkscape:pageopacity="0.0"
     inkscape:pageshadow="2"
     inkscape:zoom="0.3902439"
     inkscape:cx="278.85588"
     inkscape:cy="-149.19273"
     inkscape:document-units="px"
     inkscape:current-layer="layer1"
     showgrid="false"
     inkscape:window-width="960"
     inkscape:window-height="1028"
     inkscape:window-x="960"
     inkscape:window-y="24"
     inkscape:window-maximized="0"
     inkscape:grid-bbox="true" />
  <defs
     id="defs4500" />
  <metadata
     id="metadata4503">
    <rdf:RDF>
      <cc:Work
         rdf:about="">
        <dc:format>image/svg+xml</dc:format>
        <dc:type
           rdf:resource="http://purl.org/dc/dcmitype/StillImage" />
        <dc:title />
      </cc:Work>
    </rdf:RDF>
  </metadata>
  <g
     id="layer1"
     inkscape:groupmode="layer"
     inkscape:label="Layer 1">
    <path
       style="fill:#000000;stroke-width:1"
       d="m 76.4833,162.80402 c -4.1347,-0.35681 -9.9253,-1.16927 -13.3686,-1.87573 -5.1394,-1.05444 -12.3428,-3.12219 -12.7027,-3.64634 -0.1584,-0.23073 -0.2187,-5.15811 -0.1379,-11.28401 0.1396,-10.5953 0.1787,-11.07941 1.2173,-15.0929 0.051,-0.19795 -1.6997,-0.95714 -4.0066,-1.73723 -17.1952,-5.81464 -28.962,-14.60519 -34.2197,-25.56442 -2.2875,-4.768231 -2.6502,-6.415161 -2.6376,-11.977641 0.01,-4.47579 0.065,-4.89173 1.0326,-7.79694 0.562,-1.6879 1.0222,-3.16733 1.0226,-3.28761 0,-0.12028 -1.8431,-0.68171 -4.0969,-1.24756 C 6.332,78.727759 3.4782,77.964059 2.244,77.596499 L 0,76.928209 0.1186,65.207299 c 0.1138,-11.23461 0.1489,-11.81241 0.8477,-13.92728 2.1664,-6.55628 6.2303,-11.29662 12.1616,-14.18582 4.0131,-1.95481 3.8697,-1.94561 5.8888,-0.37776 6.8834,5.34511 16.9879,5.2902 24.0876,-0.13091 1.6025,-1.22364 1.6128,-1.22641 2.8792,-0.77962 6.1046,2.15384 10.6668,6.23572 13.5504,12.12371 l 1.4464,2.95362 1.4475,-0.18266 c 0.7961,-0.10045 3.1495,-0.431 5.2299,-0.7346 5.7258,-0.83557 22.9431,-0.81199 28.8409,0.0395 2.3403,0.33786 4.7988,0.62104 5.4632,0.62924 1.1746,0.0145 1.228,-0.0339 1.9271,-1.74556 2.2664,-5.5488 7.1105,-10.26695 12.9361,-12.59962 l 2.4155,-0.96723 1.6311,1.24489 c 3.3555,2.56101 6.7478,3.81806 10.9295,4.05002 5.0164,0.27829 9.3599,-1.01788 13.2289,-3.94774 1.9878,-1.50524 1.8588,-1.5146 5.8407,0.42398 4.7573,2.31603 8.485,6.04026 10.71,10.70013 2.079,4.3539 2.142,4.83452 2.2874,17.44288 l 0.1319,11.43483 -1.9942,0.8987 c -2.0226,0.9115 -5.9953,2.17514 -9.0074,2.86515 -0.9102,0.20847 -1.6548,0.47129 -1.6547,0.584 10e-5,0.11275 0.297,0.9851 0.6599,1.93858 0.9501,2.49652 1.5464,5.96317 1.5464,8.99036 0,12.578821 -9.3921,24.377681 -26.0351,32.706591 -3.3759,1.68947 -11.3686,4.77227 -14.4683,5.58044 -0.8668,0.226 -1.6868,0.50792 -1.8222,0.62646 -0.1355,0.11855 -0.01,1.05504 0.2849,2.08115 0.4389,1.54152 0.5553,3.8133 0.6698,13.07886 l 0.1386,11.21325 -3.2604,1.28157 c -5.5941,2.19894 -11.7509,3.54939 -19.0204,4.17197 -3.532,0.30247 -10.6817,0.36349 -13.5536,0.11565 z m 36.0905,-37.46937 c 6.0464,-1.7164 13.7251,-5.10185 19.0468,-8.39746 7.9246,-4.90759 13.8038,-11.64791 15.9154,-18.246611 1.5408,-4.81498 1.4679,-9.56547 -0.2206,-14.37891 l -0.8619,-2.45715 -2.3618,0.1576 c -1.299,0.0867 -5.9787,0.14206 -10.3994,0.12306 -7.04,-0.0303 -8.6832,-0.13737 -13.2385,-0.8628 -6.1174,-0.97423 -10.6918,-1.98842 -15.0895,-3.34549 l -3.1838,-0.98248 -0.083,-10.62199 -0.083,-10.62196 -1.576,-0.23145 c -12.4578,-1.82943 -24.4206,-1.82943 -36.8786,0 l -1.576,0.23145 -0.083,10.49831 -0.083,10.49834 -2.0055,0.90935 c -3.0319,1.37475 -8.0263,2.77251 -13.1156,3.67064 -6.1454,1.08452 -16.5775,1.3577 -23.2867,0.60982 -2.4927,-0.27785 -4.7825,-0.5052 -5.0885,-0.5052 -0.6163,0 -1.8028,2.65393 -2.5365,5.67362 -0.569,2.34153 -0.4965,7.23134 0.1472,9.92883 2.0862,8.742511 9.9522,17.018501 21.8288,22.966371 4.7592,2.38346 6.9876,3.28471 12.2453,4.95247 l 3.7824,1.19975 0.4508,-0.69045 c 0.2479,-0.37975 1.5954,-1.83522 2.9944,-3.2344 2.7054,-2.70572 5.2259,-4.3708 8.3292,-5.50231 l 1.9091,-0.69609 1.8874,1.41879 c 7.038,5.29061 16.7179,5.24264 23.8945,-0.11839 0.9027,-0.67435 1.7296,-1.22607 1.8375,-1.22607 0.1079,0 1.1423,0.37499 2.2987,0.83329 4.0684,1.61245 8.1489,4.80556 10.4995,8.21632 0.5031,0.72994 1.089,1.27183 1.3021,1.20419 0.2131,-0.0676 1.7349,-0.50549 3.3818,-0.97299 z m -33.9704,-7.74481 c -7.4075,-1.08495 -13.5222,-6.86369 -15.1017,-14.27202 -1.2592,-5.905921 0.864,-12.593601 5.3099,-16.725351 3.5146,-3.26631 7.616,-4.89776 12.2977,-4.8918 5.2358,0.007 9.0688,1.57099 12.7337,5.19707 3.9975,3.95505 5.7347,8.41319 5.4034,13.866451 -0.2963,4.87704 -2.0228,8.54233 -5.6768,12.05108 -3.919,3.76319 -9.5677,5.56526 -14.9662,4.77457 z M 26.9708,36.786279 c -3.1808,-0.69211 -6.3057,-2.47391 -8.8328,-5.03634 -3.5075,-3.55667 -5.1677,-7.61113 -5.1677,-12.62043 0,-5.14824 1.6811,-9.1692003 5.3372,-12.7656503 3.4263,-3.3705 6.8367,-4.92287 11.526,-5.24661 5.1474,-0.35536001 9.707,1.31845 13.5589,4.9774 3.7685,3.57968 5.6139,7.8644303 5.6139,13.0348603 0,11.63495 -10.6162,20.14157 -22.0355,17.65677 z m 101.8852,-0.0312 c -2.3367,-0.56572 -6.3208,-2.63754 -7.8292,-4.07136 -4.1689,-3.96264 -6.0571,-8.26574 -6.0169,-13.71184 0.05,-6.72952 3.6728,-12.6876403 9.5864,-15.7641903 7.2892,-3.79228001 15.4301,-2.54056001 21.1919,3.25839 3.5618,3.5848203 5.2401,7.6406403 5.2401,12.6634003 0,5.0093 -1.6602,9.06376 -5.1677,12.62043 -4.5176,4.58085 -10.9442,6.47243 -17.0046,5.00517 z"
       id="path4494"
       inkscape:connector-curvature="0" />
  </g>
</svg>
