<?xml version="1.0" encoding="UTF-8" standalone="no"?>
<!-- Created with Inkscape (http://www.inkscape.org/) -->

<svg
   xmlns:dc="http://purl.org/dc/elements/1.1/"
   xmlns:cc="http://creativecommons.org/ns#"
   xmlns:rdf="http://www.w3.org/1999/02/22-rdf-syntax-ns#"
   xmlns:svg="http://www.w3.org/2000/svg"
   xmlns="http://www.w3.org/2000/svg"
   xmlns:sodipodi="http://sodipodi.sourceforge.net/DTD/sodipodi-0.dtd"
   xmlns:inkscape="http://www.inkscape.org/namespaces/inkscape"
   width="164px"
   height="164px"
   viewBox="0 0 164 164"
   version="1.1"
   id="SVGRoot"
   inkscape:version="0.92.1 r15371"
   sodipodi:docname="therapy-3.svg">
  <sodipodi:namedview
     id="base"
     pagecolor="#ffffff"
     bordercolor="#666666"
     borderopacity="1.0"
     inkscape:pageopacity="0.0"
     inkscape:pageshadow="2"
     inkscape:zoom="1.5609756"
     inkscape:cx="84.482678"
     inkscape:cy="-29.431807"
     inkscape:document-units="px"
     inkscape:current-layer="layer1"
     showgrid="false"
     inkscape:window-width="960"
     inkscape:window-height="1028"
     inkscape:window-x="0"
     inkscape:window-y="24"
     inkscape:window-maximized="0"
     inkscape:grid-bbox="true" />
  <defs
     id="defs4500">
    <clipPath
       clipPathUnits="userSpaceOnUse"
       id="clipPath6584">
      <rect
         style="opacity:1;fill:#000000;fill-opacity:1;stroke:none;stroke-width:1.99999988;stroke-linecap:round;stroke-linejoin:round;stroke-miterlimit:4;stroke-dasharray:none;stroke-opacity:1"
         id="rect6586"
         width="164"
         height="164"
         x="-109.08393"
         y="-16.678566"
         ry="2.4301665" />
    </clipPath>
    <clipPath
       clipPathUnits="userSpaceOnUse"
       id="clipPath6641">
      <rect
         style="opacity:1;fill:#000000;fill-opacity:1;stroke:none;stroke-width:1.99999988;stroke-linecap:round;stroke-linejoin:round;stroke-miterlimit:4;stroke-dasharray:none;stroke-opacity:1"
         id="rect6643"
         width="164"
         height="164"
         x="114.44146"
         y="-18.715775"
         ry="2.0718143" />
    </clipPath>
    <clipPath
       clipPathUnits="userSpaceOnUse"
       id="clipPath6672">
      <rect
         style="opacity:1;fill:#000000;fill-opacity:1;stroke:none;stroke-width:1.99999988;stroke-linecap:round;stroke-linejoin:round;stroke-miterlimit:4;stroke-dasharray:none;stroke-opacity:1"
         id="rect6674"
         width="164"
         height="164"
         x="339.06354"
         y="-20.636492"
         ry="2.0718143" />
    </clipPath>
    <clipPath
       clipPathUnits="userSpaceOnUse"
       id="clipPath4509">
      <rect
         style="opacity:1;fill:#000000;fill-opacity:1;stroke:none;stroke-width:7.55905581;stroke-linecap:round;stroke-linejoin:round;stroke-miterlimit:4;stroke-dasharray:none;stroke-opacity:1"
         id="rect4511"
         width="164"
         height="164"
         x="-2.4023439e-06"
         y="-1.6828614e-06"
         ry="0" />
    </clipPath>
  </defs>
  <metadata
     id="metadata4503">
    <rdf:RDF>
      <cc:Work
         rdf:about="">
        <dc:format>image/svg+xml</dc:format>
        <dc:type
           rdf:resource="http://purl.org/dc/dcmitype/StillImage" />
        <dc:title />
      </cc:Work>
    </rdf:RDF>
  </metadata>
  <g
     id="layer1"
     inkscape:groupmode="layer"
     inkscape:label="Layer 1">
    <g
       id="g4507"
       clip-path="url(#clipPath4509)"
       transform="translate(2.4023439e-6,1.6828614e-6)">
      <rect
         ry="2.3653913"
         y="-1.6828614e-06"
         x="-2.4023439e-06"
         height="164"
         width="164"
         id="rect5026-7-2"
         style="opacity:1;fill:#ffffff;fill-opacity:0;stroke:none;stroke-width:7.55905485;stroke-linecap:round;stroke-linejoin:round;stroke-miterlimit:4;stroke-dasharray:none;stroke-opacity:1" />
      <rect
         ry="5.5511451"
         y="87.926247"
         x="15.625089"
         height="88.818321"
         width="11.759859"
         id="rect4627-8-9"
         style="opacity:1;fill:#000000;fill-opacity:0.94117647;stroke:none;stroke-width:7.55905485;stroke-linecap:round;stroke-linejoin:round;stroke-miterlimit:4;stroke-dasharray:none;stroke-opacity:1" />
      <rect
         transform="rotate(90)"
         ry="3.3840334"
         y="-170.06982"
         x="87.914307"
         height="151.57318"
         width="6.4681926"
         id="rect4627-1-5-9"
         style="opacity:1;fill:#000000;fill-opacity:0.94117647;stroke:none;stroke-width:7.55905533;stroke-linecap:round;stroke-linejoin:round;stroke-miterlimit:4;stroke-dasharray:none;stroke-opacity:1"
         rx="0" />
      <path
         sodipodi:nodetypes="ccccsscccccsccsccccccccsccsccccscccccccscsccccscccscccsscsccscacc"
         inkscape:connector-curvature="0"
         id="path5815-1"
         d="M 44.76509,86.57341 C 43.00184,85.69435 42.43176,83.98765 40.1644,72.799997 39.77383,68.853816 36.54334,59.321328 39.61244,58.379054 c 1.18802,-0.963293 3.52295,-1.699845 5.60594,-1.768401 1.97362,-0.06487 2.70219,-0.284568 1.62937,-0.491199 -1.86351,-0.358916 -1.94055,-0.728433 -1.94055,-9.311648 v -8.937873 l -7.12949,-4.306436 -7.12953,-4.306442 -3.74429,-9.11724 C 23.19284,11.103413 22.93526,8.865165 25.49347,7.883488 c 2.14388,-0.822675 3.4236,0.927633 6.85612,9.377588 l 3.24466,7.987506 6.26123,3.665425 c 6.00896,3.517734 6.55065,3.665425 13.44478,3.665425 6.87821,0 7.43121,-0.149614 13.00983,-3.520303 3.20447,-1.936177 6.16634,-3.973696 6.58192,-4.527866 0.41561,-0.554178 2.02894,-4.11239 3.58523,-7.907188 3.36818,-8.212716 4.09909,-9.219269 6.44973,-8.881764 2.88063,0.41362 2.62492,2.866188 -1.29805,12.449167 l -3.69383,9.023327 -7.16451,4.327564 -7.16451,4.327564 v 8.934616 c 0,7.78394 -0.19428,8.985418 -1.50929,9.329053 -0.83011,0.217098 0.27414,0.439435 2.45368,0.494463 4.1989,0.105936 6.81769,1.94093 6.81769,4.777031 0,0.83741 -1.0446,6.571125 -2.32132,12.741597 -1.87873,9.079927 -2.68074,11.454557 -4.20633,12.454167 -1.51238,0.99093 -2.32886,1.03285 -4.13048,0.21188 -1.23502,-0.56272 -2.44748,-1.65947 -2.69434,-2.43722 -0.24675,-0.77775 0.3422,-5.03836 1.30899,-9.467984 0.96678,-4.429626 1.5925,-8.219146 1.3905,-8.421111 -0.45605,-0.456092 -13.56345,-0.491166 -14.0171,-0.03749 -0.18124,0.181235 0.46636,3.977404 1.43936,8.435617 1.90528,8.729608 1.5475,11.408948 -1.63456,12.241078 -0.94881,0.24806 -2.63083,-3.9e-4 -3.73778,-0.55229 z m -8.4824,-10.871333 c 0,-4.499247 0.35564,-7.76207 0.84602,-7.76207 0.46532,0 1.04433,0.873225 1.28672,1.940506 2.86081,12.597457 2.8625,13.583637 0.0228,13.583637 -2.14017,0 -2.15615,-0.0574 -2.15615,-7.762073 z m 15.21028,0.646815 c -0.77681,-3.913353 -1.41209,-7.40631 -1.4117,-7.76207 3.6e-4,-0.35576 2.57295,-0.646815 5.71684,-0.646815 h 5.71617 l -0.55483,3.469745 c -0.3051,1.908372 -0.9691,5.401294 -1.47539,7.762078 -0.87687,4.08869 -1.05476,4.29232 -3.74963,4.29232 H 52.90535 Z M 71.11516,79.9944 c 1.1652,-7.286648 2.42569,-12.054393 3.18691,-12.054393 0.43503,0 0.79098,3.492922 0.79098,7.76207 v 7.762073 h -2.26634 c -2.16324,0 -2.24111,-0.15777 -1.71155,-3.46975 z M 52.14158,30.009253 c -2.80371,-1.132796 -5.50945,-5.127935 -5.50945,-8.134877 0,-3.521736 2.09052,-6.4244 5.71866,-7.94034 2.49839,-1.043905 3.31334,-1.043905 5.81174,0 7.20764,3.011534 7.77107,12.344142 0.94093,15.585258 -3.13032,1.485427 -4.29525,1.567409 -6.96188,0.489959 z"
         style="fill:#f4be00;fill-opacity:1;stroke-width:3.77952766" />
      <path
         inkscape:connector-curvature="0"
         id="path5843"
         d="m 111.82121,86.54179 c -1.76227,-1.48748 -4.92188,-13.801527 -5.98563,-23.328187 -0.57639,-5.16189 0.90642,-6.66065 6.80768,-6.88094 2.18041,-0.0816 3.07238,-0.31997 1.98219,-0.52977 -1.86864,-0.35994 -1.98219,-0.80714 -1.98219,-7.80871 0,-8.09865 -0.35856,-8.54615 -4.49056,-5.60393 -1.4081,1.00266 -3.30766,1.69641 -4.22127,1.54168 -1.77026,-0.29966 -15.07418,-16.01489 -15.07418,-17.80623 0,-1.37723 1.81122,-3.1777 3.19664,-3.1777 1.30162,0 2.05062,0.75187 8.10614,8.13747 l 4.69557,5.72689 4.55456,-2.5114 c 4.1318,-2.2783 5.35994,-2.5129 13.23107,-2.52738 6.09009,-0.01 9.54597,0.39665 11.59329,1.36817 3.66172,1.7376 13.64731,12.04033 13.64731,14.08075 0,0.83707 -1.43038,3.39759 -3.17863,5.69004 -3.07089,4.02678 -3.27246,4.13516 -5.94652,3.19707 -1.52233,-0.53408 -2.91478,-1.05982 -3.09431,-1.16833 -0.17947,-0.10855 0.97045,-1.83483 2.55558,-3.8362 l 2.88199,-3.63884 -3.65676,-3.65677 -3.65679,-3.65679 v 7.6309 c 0,6.5267 -0.22309,7.68917 -1.54169,8.03376 -0.84792,0.22175 0.0992,0.44886 2.10483,0.50507 2.14877,0.0603 4.50072,0.79411 5.72625,1.78674 l 2.07979,1.68456 -2.0422,9.98821 c -2.98251,14.587417 -3.56689,16.470717 -5.41826,17.461547 -2.16862,1.16061 -5.8651,-0.20244 -6.56972,-2.42246 -0.28935,-0.91149 0.24007,-5.39237 1.17646,-9.957477 0.93635,-4.56512 1.57961,-8.42309 1.42944,-8.57322 -0.43895,-0.43898 -13.83836,-0.31366 -14.28563,0.13352 -0.22375,0.22375 0.35241,4.10945 1.28014,8.63505 0.9277,4.525617 1.51149,8.898677 1.29723,9.717967 -0.2141,0.81926 -1.5262,1.88581 -2.91549,2.3701 -1.99961,0.69709 -2.89281,0.57093 -4.28633,-0.60529 z m -7.98757,-10.735977 c 0,-4.36078 0.36359,-7.92867 0.80796,-7.92867 0.77757,0 2.06511,4.87008 3.25531,12.313117 0.54094,3.38293 0.46139,3.54422 -1.74828,3.54422 h -2.31499 z m 15.94401,3.544217 c -0.51716,-2.411447 -1.19533,-5.979337 -1.50706,-7.928667 l -0.56673,-3.54422 h 5.94155 5.94159 l -0.5126,2.42264 c -0.28202,1.33245 -0.9913,4.90037 -1.57641,7.928657 -1.04414,5.40402 -1.11679,5.50604 -3.92193,5.50604 -2.71468,0 -2.9053,-0.22009 -3.79841,-4.38445 z m 19.14285,3.93911 c -0.55421,-0.55421 2.29068,-14.320817 3.13361,-15.163737 1.02014,-1.02013 1.4983,2.30213 1.24402,8.6438 -0.23241,5.795147 -0.46269,6.553567 -2.05981,6.782177 -0.989,0.14151 -2.032,0.0233 -2.31782,-0.26237 z M 120.57194,29.375743 c -0.7268,-0.26437 -2.41162,-1.49663 -3.7441,-2.73814 -5.16475,-4.81231 -1.47097,-14.3127 5.64321,-14.51438 9.16293,-0.25971 12.80721,10.77397 5.23857,15.86068 -2.97206,1.99744 -4.60064,2.31502 -7.13768,1.39184 z"
         style="fill:#000000;stroke-width:3.77952766" />
    </g>
  </g>
</svg>
