<?xml version="1.0" encoding="UTF-8" standalone="no"?>
<!-- Created with Inkscape (http://www.inkscape.org/) -->

<svg
   xmlns:dc="http://purl.org/dc/elements/1.1/"
   xmlns:cc="http://creativecommons.org/ns#"
   xmlns:rdf="http://www.w3.org/1999/02/22-rdf-syntax-ns#"
   xmlns:svg="http://www.w3.org/2000/svg"
   xmlns="http://www.w3.org/2000/svg"
   xmlns:sodipodi="http://sodipodi.sourceforge.net/DTD/sodipodi-0.dtd"
   xmlns:inkscape="http://www.inkscape.org/namespaces/inkscape"
   width="164px"
   height="164px"
   viewBox="0 0 164 164"
   version="1.1"
   id="SVGRoot"
   inkscape:version="0.92.1 r15371"
   sodipodi:docname="therapy-1.svg">
  <sodipodi:namedview
     id="base"
     pagecolor="#ffffff"
     bordercolor="#666666"
     borderopacity="1.0"
     inkscape:pageopacity="0.0"
     inkscape:pageshadow="2"
     inkscape:zoom="1.5609756"
     inkscape:cx="53.630446"
     inkscape:cy="-29.290648"
     inkscape:document-units="px"
     inkscape:current-layer="layer1"
     showgrid="false"
     inkscape:window-width="960"
     inkscape:window-height="1028"
     inkscape:window-x="0"
     inkscape:window-y="24"
     inkscape:window-maximized="0"
     inkscape:grid-bbox="true" />
  <defs
     id="defs4500">
    <clipPath
       clipPathUnits="userSpaceOnUse"
       id="clipPath6584">
      <rect
         style="opacity:1;fill:#000000;fill-opacity:1;stroke:none;stroke-width:1.99999988;stroke-linecap:round;stroke-linejoin:round;stroke-miterlimit:4;stroke-dasharray:none;stroke-opacity:1"
         id="rect6586"
         width="164"
         height="164"
         x="-109.08393"
         y="-16.678566"
         ry="2.4301665" />
    </clipPath>
  </defs>
  <metadata
     id="metadata4503">
    <rdf:RDF>
      <cc:Work
         rdf:about="">
        <dc:format>image/svg+xml</dc:format>
        <dc:type
           rdf:resource="http://purl.org/dc/dcmitype/StillImage" />
        <dc:title />
      </cc:Work>
    </rdf:RDF>
  </metadata>
  <g
     id="layer1"
     inkscape:groupmode="layer"
     inkscape:label="Layer 1">
    <g
       transform="translate(109.08393,16.678566)"
       id="g6582"
       clip-path="url(#clipPath6584)"
       style="stroke-width:3.77952766">
      <rect
         ry="2.3653913"
         y="-16.678566"
         x="-109.08393"
         height="164"
         width="164"
         id="rect5026"
         style="opacity:1;fill:#ffffff;fill-opacity:0;stroke:none;stroke-width:7.55905485;stroke-linecap:round;stroke-linejoin:round;stroke-miterlimit:4;stroke-dasharray:none;stroke-opacity:1" />
      <path
         inkscape:connector-curvature="0"
         id="path5079"
         d="m -82.035606,133.37458 c -1.96377,-0.78306 -3.18176,-3.23793 -2.63131,-5.30344 0.14225,-0.53376 0.88193,-1.78392 1.64373,-2.77812 0.7618,-0.99421 1.56352,-2.06732 1.78159,-2.38468 0.21806,-0.31737 1.28945,-1.73297 2.38086,-3.14577 1.0914,-1.4128 2.61796,-3.41532 3.39233,-4.45005 l 1.40797,-1.88132 -0.1469,-3.43958 c -0.0808,-1.89177 -0.22331,-4.97485 -0.3167,-6.85128 -0.16453,-3.30585 -0.15439,-3.400258 0.32666,-3.04271 0.27306,0.20295 2.52043,2.43277 4.99416,4.95517 l 4.497687,4.58617 0.0878,3.1292 c 0.0748,2.66655 0.0169,3.24029 -0.391627,3.8805 -0.47002,0.7366 -8.2926,11.20699 -8.5671,11.46691 -0.0768,0.0728 -0.95668,1.18711 -1.95519,2.47634 -1.18022,1.52383 -2.12361,2.47279 -2.69606,2.71198 -1.01055,0.42223 -2.84103,0.45621 -3.80786,0.0707 z"
         style="fill:#f4be00;fill-opacity:1;stroke-width:3.77952766" />
      <path
         inkscape:connector-curvature="0"
         id="path5077"
         d="m -55.905267,133.12614 c -1.453624,-0.76746 -1.946861,-2.01179 -3.117535,-7.86481 -0.573744,-2.86855 -1.171671,-5.63226 -1.328721,-6.14159 -0.15706,-0.50932 -0.327377,-1.22369 -0.378487,-1.5875 -0.0511,-0.3638 -0.28857,-1.79255 -0.527667,-3.175 -0.40612,-2.34806 -0.509307,-2.59192 -1.567421,-3.70416 -0.622987,-0.65485 -1.397614,-1.54781 -1.721401,-1.98438 -0.323787,-0.43656 -2.528857,-2.75827 -4.900157,-5.15937 -7.08366,-7.17265 -7.29032,-7.524953 -7.84364,-13.371369 -0.46534,-4.916755 0.0818,-9.882907 1.66042,-15.071336 1.04872,-3.446803 1.82823,-4.953079 3.30702,-6.390301 1.46333,-1.42219 2.30215,-1.87805 4.07415,-2.2141 2.72893,-0.51753 4.639441,0.30245 5.754825,2.46994 0.977084,1.89871 1.126524,3.360416 0.640717,6.266753 -0.23108,1.382448 -0.498467,2.604204 -0.594197,2.715011 -0.0957,0.110808 -0.505907,-1.258411 -0.911534,-3.042708 -0.765047,-3.365373 -1.164964,-4.115231 -2.590271,-4.856816 -1.39669,-0.7267 -3.41967,-0.339751 -4.48538,0.857946 -1.17055,1.315516 -1.09282,2.465996 0.68561,10.1474 0.38745,1.67349 0.89339,3.876146 1.1243,4.894792 0.57166,2.521751 0.72572,2.76506 2.97096,4.692044 l 1.962251,1.68412 -0.0623,1.920478 -0.0623,1.920476 3.655489,3.88727 c 2.010508,2.138 4.305216,4.57583 5.09933,5.41738 0.794127,0.84156 1.592121,1.88272 1.773331,2.31368 0.181207,0.43096 0.995664,4.02866 1.809908,7.99489 0.814237,3.96623 1.656921,7.98523 1.872631,8.93111 1.088294,4.77217 1.057024,5.44427 -0.34172,7.34524 -1.197561,1.62756 -3.988146,2.14505 -5.958244,1.10491 z"
         style="fill:#f4be00;fill-opacity:1;stroke-width:3.77952766" />
      <path
         inkscape:connector-curvature="0"
         id="path5075"
         d="m -54.031949,99.462505 c -0.386897,-0.17534 -1.986418,-1.449891 -3.554489,-2.832338 -1.568071,-1.382448 -3.573229,-3.093361 -4.455906,-3.802026 -1.920908,-1.54223 -4.850722,-4.352097 -5.201162,-4.98825 -0.13813,-0.250746 -0.36318,-1.024652 -0.50011,-1.719792 -0.13693,-0.69514 -0.83655,-3.863207 -1.55472,-7.040149 -1.46443,-6.47818 -1.4615,-7.029133 0.0427,-8.04822 1.10121,-0.746065 2.53402,-0.77225 3.43595,-0.06279 0.68164,0.536175 1.332937,2.139891 1.664144,4.097686 0.0985,0.582084 0.580557,2.69539 1.071294,4.696238 0.490737,2.000848 0.892254,3.892873 0.892254,4.204504 0,0.537538 1.147534,1.767922 3.225332,3.458192 0.484947,0.394496 1.417284,1.227933 2.071868,1.852083 1.222234,1.165415 4.147989,3.757578 5.5825,4.945991 1.498531,1.241459 1.886498,2.586768 1.154294,4.002693 -0.710207,1.373405 -2.389048,1.909123 -3.873939,1.236179 z"
         style="fill:#f4be00;fill-opacity:1;stroke-width:3.77952766" />
      <path
         inkscape:connector-curvature="0"
         id="path4604"
         d="m -71.696126,64.461594 c -2.48773,-0.90525 -3.93385,-2.1927 -5.08172,-4.52412 -0.50204,-1.01971 -0.62775,-1.69887 -0.62775,-3.39169 0,-1.81185 0.1088,-2.32623 0.75546,-3.57187 1.00301,-1.93207 1.75975,-2.69558 3.7053,-3.73847 1.41643,-0.75926 1.87899,-0.8719 3.60904,-0.8788 1.64103,-0.007 2.27315,0.12498 3.65342,0.76022 5.026986,2.31355 6.339497,8.90387 2.598068,13.04521 -2.033468,2.25082 -5.904858,3.28456 -8.611818,2.29952 z"
         style="fill:#f4be00;fill-opacity:1;stroke-width:3.77952766" />
      <rect
         ry="5.8799295"
         y="39.749657"
         x="-31.131077"
         height="94.078873"
         width="11.759859"
         id="rect4627"
         style="opacity:1;fill:#000000;fill-opacity:0.94117647;stroke:none;stroke-width:7.55905533;stroke-linecap:round;stroke-linejoin:round;stroke-miterlimit:4;stroke-dasharray:none;stroke-opacity:1" />
      <path
         inkscape:connector-curvature="0"
         id="path4683"
         d="M 8.2452719,39.488687 C 9.6024424,39.159464 10.660931,38.234208 11.098202,36.994845 11.446922,36.006454 11.444616,35.460872 11.086732,34.4122 10.689764,33.247178 9.7417767,32.497853 7.1722521,31.318082 5.9925611,30.776434 4.5849738,30.127863 4.0442778,29.876799 3.5035818,29.625748 2.638927,29.230992 2.1228086,28.999575 1.6066902,28.768158 1.1844094,28.506245 1.1844094,28.417534 c 0,-0.230592 2.4875686,-4.727698 3.3461679,-6.049339 C 6.5521347,19.256461 6.2237604,15.503243 3.5600426,11.275078 2.324751,9.3142826 -0.79139906,5.9244086 -3.38268,3.7225164 -6.4897409,1.0823211 -9.7759673,0.15581511 -13.103443,0.98187748 c -3.042423,0.75529992 -4.56788,2.19163952 -5.195781,4.89225202 -0.12571,0.5406846 -0.589412,2.0689337 -1.030441,3.3960901 -2.520184,7.5854914 -6.468391,15.0554454 -11.282961,21.3482544 l -1.358836,1.776045 v 1.206139 c 0,1.09567 0.04911,1.257781 0.536224,1.770046 0.294925,0.310162 0.753424,0.677393 1.018888,0.816085 0.742765,0.388035 1.956765,0.318442 2.663569,-0.152684 1.050668,-0.70033 3.49621,-4.122444 4.628459,-6.476711 2.756257,-5.731091 5.690896,-14.292484 8.042271,-23.4621922 0.54208,-2.1139381 3.103264,-3.3419356 4.96879,-2.3823422 1.2395857,0.6376188 2.1842629,2.0163617 2.1810975,3.1832872 -0.00115,0.6529637 -0.8562907,4.0311862 -1.9887807,7.8623012 l -0.9090438,3.075229 0.555889,0.674388 c 0.6698768,0.81269 0.6873667,0.950419 0.120663,0.950419 -0.741201,0 -1.287938,0.305608 -1.492002,0.833987 -0.107577,0.278623 -0.492054,1.351126 -0.854326,2.383363 -0.722072,2.057409 -2.466843,6.488891 -3.169337,8.049644 l -0.445295,0.989355 2.02909,3.211077 c 1.115998,1.76609 2.27646,3.420383 2.578812,3.676217 0.593724,0.502379 1.6223416,0.875424 2.4138681,0.875424 2.4816369,0 4.4996172,-2.718022 3.6591764,-4.928551 -0.10104,-0.265801 -0.1571453,-0.509868 -0.1246428,-0.54237 0.032457,-0.03246 2.7493793,1.177431 6.0375267,2.688742 3.2881359,1.511323 6.2599512,2.787352 6.6040263,2.835612 0.3440751,0.04828 0.8668913,0.02925 1.1618226,-0.04232 z M -9.7162149,27.321496 c -0.00229,-0.0789 2.5662308,-0.713668 2.8862524,-0.713439 0.064799,5.8e-5 -0.196629,0.607674 -0.5809136,1.350278 -0.3842698,0.742592 -0.7007739,1.486607 -0.7033315,1.653352 -0.00344,0.254722 -1.596078,-2.02142 -1.6020073,-2.290191 z M -20.889505,38.470202 c 0.87924,-0.489603 1.140453,-0.894761 2.865211,-4.44427 3.522193,-7.248584 7.094482,-17.336163 9.034566,-25.5121591 L -8.5769583,6.7742461 -8.9283814,5.9262895 C -9.7293581,3.993627 -12.155853,3.5132454 -13.636765,4.9941638 c -0.29768,0.2976838 -0.621181,0.8386551 -0.718868,1.2021469 -0.09771,0.3634914 -0.546611,2.0515125 -0.997586,3.7511636 -2.072993,7.8128487 -5.247846,16.3879237 -8.431518,22.7730687 -0.622362,1.248205 -1.180992,2.516539 -1.241387,2.818523 -0.159955,0.799799 0.38089,2.063052 1.126871,2.632041 0.789829,0.602433 2.211332,0.743694 3.009748,0.299095 z M -25.493079,8.9937876 c 1.578045,-0.5274377 2.425424,-1.0472834 3.558809,-2.1832545 1.544953,-1.5484699 2.38531,-3.6415807 2.38531,-5.94117582 0,-3.29400788 -1.804878,-6.22120978 -4.737671,-7.68367518 -1.425184,-0.7106749 -1.313222,-0.6819571 -3.216294,-0.8252252 -3.747433,-0.2821431 -7.160067,1.883909 -8.546989,5.4248975 -1.203296,3.07217848 -0.390136,6.7963462 1.998007,9.1506124 2.302585,2.2699128 5.57223,3.0560525 8.558828,2.0578208 z"
         style="fill:#000000;stroke-width:3.77952743" />
      <path
         inkscape:connector-curvature="0"
         id="path4996-6"
         d="m -71.44829,40.933469 c -0.327887,-2.703745 0.239524,-5.628347 1.667807,-8.598419 2.75647,-5.73218 1.89465,-11.083809 -2.611385,-16.215928 -8.25857,-9.4060414 -24.375565,-7.0222994 -28.911452,4.276049 -4.29902,10.708277 3.596848,21.3578 15.83527,21.3578 2.482561,0 6.278904,0.737523 8.436335,1.638944 5.62984,2.352358 6.139312,2.127995 5.583425,-2.458446 z m -13.022691,-0.272963 c -5.773883,0 -11.069302,-2.378216 -13.714122,-6.1591 -3.647307,-5.21399 -3.970997,-8.773734 -1.299533,-14.292201 2.89463,-5.979462 9.744826,-9.686526 16.018372,-8.668471 4.697195,0.762212 10.673734,4.733915 12.215488,8.117693 1.708692,3.750255 1.39756,10.871372 -0.608784,13.933482 -1.237005,1.887903 -1.545456,3.839838 -1.035925,6.555815 l 0.725544,3.86742 -4.014413,-1.677331 c -2.207932,-0.922533 -5.936914,-1.677307 -8.286627,-1.677307 z"
         style="fill:#f4be00;fill-opacity:1;stroke-width:3.77952766" />
      <text
         id="text5083"
         y="37.301254"
         x="-93.210655"
         style="font-style:normal;font-weight:normal;font-size:30.30410767px;line-height:1.25;font-family:sans-serif;letter-spacing:0px;word-spacing:0px;fill:#f4be00;fill-opacity:1;stroke:none;stroke-width:0.99999994"
         xml:space="preserve"><tspan
           style="fill:#f4be00;fill-opacity:1;stroke-width:0.99999994"
           y="37.301254"
           x="-93.210655"
           id="tspan5081"
           sodipodi:role="line">?</tspan></text>
      <rect
         transform="rotate(90)"
         ry="3.4261608"
         y="-59.890873"
         x="40.143883"
         height="87.653275"
         width="6.4681926"
         id="rect4627-1"
         style="opacity:1;fill:#000000;fill-opacity:0.94117647;stroke:none;stroke-width:7.55905485;stroke-linecap:round;stroke-linejoin:round;stroke-miterlimit:4;stroke-dasharray:none;stroke-opacity:1" />
    </g>
  </g>
</svg>
