<?xml version="1.0" encoding="UTF-8" standalone="no"?>
<!-- Created with Inkscape (http://www.inkscape.org/) -->

<svg
   xmlns:dc="http://purl.org/dc/elements/1.1/"
   xmlns:cc="http://creativecommons.org/ns#"
   xmlns:rdf="http://www.w3.org/1999/02/22-rdf-syntax-ns#"
   xmlns:svg="http://www.w3.org/2000/svg"
   xmlns="http://www.w3.org/2000/svg"
   xmlns:sodipodi="http://sodipodi.sourceforge.net/DTD/sodipodi-0.dtd"
   xmlns:inkscape="http://www.inkscape.org/namespaces/inkscape"
   width="164px"
   height="164px"
   viewBox="0 0 164 164"
   version="1.1"
   id="SVGRoot"
   inkscape:version="0.92.1 r15371"
   sodipodi:docname="therapy-2.svg">
  <sodipodi:namedview
     id="base"
     pagecolor="#ffffff"
     bordercolor="#666666"
     borderopacity="1.0"
     inkscape:pageopacity="0.0"
     inkscape:pageshadow="2"
     inkscape:zoom="1.5609756"
     inkscape:cx="66.763259"
     inkscape:cy="-29.290648"
     inkscape:document-units="px"
     inkscape:current-layer="layer1"
     showgrid="false"
     inkscape:window-width="960"
     inkscape:window-height="1028"
     inkscape:window-x="0"
     inkscape:window-y="24"
     inkscape:window-maximized="0"
     inkscape:grid-bbox="true" />
  <defs
     id="defs4500">
    <clipPath
       clipPathUnits="userSpaceOnUse"
       id="clipPath6584">
      <rect
         style="opacity:1;fill:#000000;fill-opacity:1;stroke:none;stroke-width:1.99999988;stroke-linecap:round;stroke-linejoin:round;stroke-miterlimit:4;stroke-dasharray:none;stroke-opacity:1"
         id="rect6586"
         width="164"
         height="164"
         x="-109.08393"
         y="-16.678566"
         ry="2.4301665" />
    </clipPath>
    <clipPath
       clipPathUnits="userSpaceOnUse"
       id="clipPath6641">
      <rect
         style="opacity:1;fill:#000000;fill-opacity:1;stroke:none;stroke-width:1.99999988;stroke-linecap:round;stroke-linejoin:round;stroke-miterlimit:4;stroke-dasharray:none;stroke-opacity:1"
         id="rect6643"
         width="164"
         height="164"
         x="114.44146"
         y="-18.715775"
         ry="2.0718143" />
    </clipPath>
  </defs>
  <metadata
     id="metadata4503">
    <rdf:RDF>
      <cc:Work
         rdf:about="">
        <dc:format>image/svg+xml</dc:format>
        <dc:type
           rdf:resource="http://purl.org/dc/dcmitype/StillImage" />
        <dc:title />
      </cc:Work>
    </rdf:RDF>
  </metadata>
  <g
     id="layer1"
     inkscape:groupmode="layer"
     inkscape:label="Layer 1">
    <g
       transform="translate(-114.44146,18.715775)"
       id="g6622"
       clip-path="url(#clipPath6641)"
       style="stroke-width:3.77952766">
      <rect
         style="opacity:1;fill:#cccccc;fill-opacity:0;stroke:none;stroke-width:7.55905533;stroke-linecap:round;stroke-linejoin:round;stroke-miterlimit:4;stroke-dasharray:none;stroke-opacity:1"
         id="rect5026-8-0-1"
         width="164"
         height="164"
         x="114.44146"
         y="-18.715775"
         ry="2.3653915" />
      <path
         style="fill:#f4be00;fill-opacity:1;stroke-width:3.77952766"
         d="m 141.64098,178.96238 c -1.96377,-0.78306 -3.18176,-3.23791 -2.63131,-5.30344 0.14225,-0.53374 0.88193,-1.7839 1.64373,-2.7781 0.7618,-0.99422 1.56352,-2.06732 1.78159,-2.38468 0.21806,-0.31737 1.28945,-1.73297 2.38086,-3.14577 1.0914,-1.41282 2.61796,-3.41532 3.39233,-4.45005 l 1.40797,-1.88132 -0.1469,-3.43958 c -0.0808,-1.89178 -0.22331,-4.97486 -0.3167,-6.85128 -0.16453,-3.30587 -0.15439,-3.40027 0.32666,-3.04271 0.27306,0.20293 2.52043,2.43276 4.99416,4.95517 l 4.49769,4.58615 0.0878,3.1292 c 0.0748,2.66655 0.0169,3.2403 -0.39163,3.88051 -0.47002,0.7366 -8.2926,11.20699 -8.5671,11.46691 -0.0768,0.0728 -0.95668,1.18711 -1.95519,2.47634 -1.18022,1.52382 -2.12361,2.4728 -2.69606,2.71198 -1.01055,0.42223 -2.84103,0.45622 -3.80786,0.0707 z"
         id="path5079-8-5-3"
         inkscape:connector-curvature="0" />
      <path
         style="fill:#f4be00;fill-opacity:1;stroke-width:3.77952766"
         d="m 167.77132,178.71394 c -1.45362,-0.76745 -1.94686,-2.01179 -3.11753,-7.86479 -0.57375,-2.86856 -1.17168,-5.63227 -1.32872,-6.14159 -0.15706,-0.50932 -0.32738,-1.2237 -0.37849,-1.5875 -0.0511,-0.3638 -0.28857,-1.79255 -0.52767,-3.175 -0.40612,-2.34807 -0.5093,-2.59194 -1.56742,-3.70417 -0.62299,-0.65484 -1.39761,-1.54781 -1.7214,-1.98437 -0.32379,-0.43656 -2.52886,-2.75828 -4.90016,-5.15938 -7.08366,-7.17264 -7.29032,-7.52496 -7.84364,-13.37138 -0.46534,-4.91675 0.0818,-9.8829 1.66042,-15.07132 1.04872,-3.44681 1.82823,-4.95308 3.30702,-6.3903 1.46333,-1.42219 2.30215,-1.87807 4.07415,-2.21411 2.72893,-0.51753 4.63944,0.30247 5.75483,2.46993 -1.47529,0.84083 -0.72646,0.35107 -3.45529,1.08226 -5.04417,1.05001 -6.34331,4.44881 -5.00248,6.52858 0.96834,4.77092 8.24633,1.14591 8.92314,0.32411 l -1.66292,15.42361 -0.0623,1.92048 -0.0623,1.92048 3.65549,3.88725 c 2.01051,2.13802 4.30522,4.57584 5.09933,5.4174 0.79413,0.84156 1.59212,1.88272 1.77333,2.31368 0.18121,0.43095 0.99567,4.02865 1.80992,7.99488 0.81423,3.96624 1.65691,7.98523 1.87262,8.93112 1.0883,4.77216 1.05704,5.44425 -0.34172,7.34523 -1.19756,1.62756 -3.98814,2.14506 -5.95824,1.1049 z"
         id="path5077-9-1-1"
         inkscape:connector-curvature="0"
         sodipodi:nodetypes="ccccccsccsccccccccccccscccc" />
      <path
         style="fill:#f4be00;fill-opacity:1;stroke-width:3.77952766"
         d="m 179.86029,102.67041 c -0.10621,0.41127 -1.08675,2.20613 -2.17899,3.98855 -1.09224,1.78241 -2.4329,4.05188 -2.97924,5.04327 -1.18897,2.15747 -3.45323,5.5268 -4.01965,5.98138 -0.22326,0.17921 -0.94695,0.53396 -1.60819,0.78838 -0.66125,0.25443 -3.66183,1.48834 -6.66798,2.74207 -6.1299,2.55651 -6.67315,2.64834 -7.9357,1.34178 -0.9243,-0.95652 -1.19645,-2.3635 -0.65264,-3.374 0.41099,-0.76366 1.87883,-1.681 3.75052,-2.34391 0.55648,-0.19712 2.55543,-1.03537 4.4421,-1.86283 1.88667,-0.82746 3.68147,-1.54831 3.98846,-1.60189 0.52954,-0.0924 1.54429,-1.43444 2.85212,-3.77193 0.30524,-0.54554 0.96595,-1.60729 1.46826,-2.35945 0.9379,-1.40443 2.98839,-4.73231 3.91246,-6.34979 0.9653,-1.689681 2.22387,-2.303171 3.7446,-1.825331 1.47507,0.46347 2.29147,2.025201 1.88387,3.603681 z"
         id="path5075-7-1-1"
         inkscape:connector-curvature="0" />
      <path
         style="fill:#f4be00;fill-opacity:1;stroke-width:3.77952766"
         d="m 151.98046,110.04941 c -2.48773,-0.90525 -3.93385,-2.19271 -5.08172,-4.52411 -0.50204,-1.01974 -0.62775,-1.69889 -0.62775,-3.3917 0,-1.81186 0.1088,-2.326241 0.75546,-3.571871 1.00301,-1.93207 1.75975,-2.69558 3.7053,-3.73849 1.41643,-0.75924 1.87899,-0.87188 3.60904,-0.87878 1.64103,-0.007 2.27315,0.12499 3.65342,0.76022 5.02699,2.31355 6.3395,8.903871 2.59807,13.045211 -2.03347,2.25081 -5.90486,3.28456 -8.61182,2.29952 z"
         id="path4604-7-0-0"
         inkscape:connector-curvature="0" />
      <rect
         style="opacity:1;fill:#000000;fill-opacity:0.94117647;stroke:none;stroke-width:7.55905533;stroke-linecap:round;stroke-linejoin:round;stroke-miterlimit:4;stroke-dasharray:none;stroke-opacity:1"
         id="rect4627-6-8-3"
         width="11.759859"
         height="94.078873"
         x="192.54552"
         y="85.337463"
         ry="5.8799295" />
      <rect
         style="opacity:1;fill:#000000;fill-opacity:0.94117647;stroke:none;stroke-width:7.55905533;stroke-linecap:round;stroke-linejoin:round;stroke-miterlimit:4;stroke-dasharray:none;stroke-opacity:1"
         id="rect4627-1-8-5-40"
         width="6.4681926"
         height="86.481361"
         x="85.20253"
         y="-282.39554"
         ry="3.3803535"
         transform="rotate(90)" />
      <path
         style="fill:#000000;stroke-width:3.77952766"
         d="m 218.2556,81.629789 c 1.19735,-0.32467 2.231,-1.10847 2.8733,-2.17879 0.68384,-1.13959 0.81509,-2.17538 0.50781,-4.00825 -0.73337,-4.37451 -0.90048,-9.70617 -0.40908,-13.05179 l 0.23314,-1.58738 0.56909,2.29288 c 1.35691,5.46697 3.4408,10.62832 6.2416,15.459 1.13986,1.96591 2.43088,2.7854 4.39862,2.79199 2.86588,0.0101 5.01258,-2.40866 4.68006,-5.27211 -0.085,-0.732 -0.34733,-1.38969 -1.02021,-2.55792 -4.22823,-7.34094 -6.37493,-15.29855 -6.76836,-25.08974 l -0.11457,-2.85162 0.68083,-0.43017 c 1.50118,-0.94847 2.72225,-2.74694 3.20519,-4.72075 0.76467,-3.12535 0.77145,-10.73721 0.013,-14.53417 -0.65482,-3.27769 -1.9866,-7.66996 -2.78111,-9.1722 -0.77163,-1.45894 -2.53461,-3.18821 -3.96804,-3.89217 -3.63484,-1.78506 -6.68938,-0.98259 -8.2256,2.161 -1.46818,3.00432 -3.7855,5.55184 -6.07338,6.67662 -1.35364,0.66548 -1.46423,0.68925 -3.17476,0.68242 -1.53173,-0.006 -1.9399,-0.0753 -3.00694,-0.50934 -0.67903,-0.27625 -1.89214,-0.92786 -2.69579,-1.44802 -0.80364,-0.52017 -1.53781,-0.94576 -1.63147,-0.94576 -0.0937,0 -0.17031,-0.0834 -0.17031,-0.18538 0,-0.53587 -2.55969,-0.92391 -3.56013,-0.53968 -0.42238,0.16223 -1.49749,1.07781 -1.26558,1.07781 0.072,0 -0.023,0.11265 -0.21138,0.25034 -0.28281,0.20681 -0.35319,0.51366 -0.40457,1.76438 l -0.0622,1.51403 1.08087,1.05763 c 0.59447,0.5817 1.18941,1.05764 1.32207,1.05764 0.13266,0 0.28689,0.11905 0.34272,0.26456 0.0558,0.14551 0.23913,0.26456 0.40732,0.26456 0.1682,0 0.56751,0.25368 0.88741,0.56373 0.58156,0.56367 0.58161,0.56368 0.58547,0.13228 0.006,-0.68168 0.59892,-1.81283 1.22696,-2.34131 1.6034,-1.34915 3.46501,-1.30507 5.34185,0.12649 0.31555,0.24066 1.20793,0.73982 1.98311,1.10924 1.16776,0.55651 1.63917,0.68245 2.74921,0.73445 1.49106,0.0699 2.25168,-0.20252 3.41294,-1.22213 1.39231,-1.22247 2.898,-3.88776 3.7125,-6.57168 0.33977,-1.11963 0.64656,-1.7519 1.08616,-2.23849 1.7144,-1.89763 4.80367,-1.53014 6.05335,0.7201 0.5945,1.07047 0.57351,2.29111 -0.0726,4.22518 -1.2034,3.60208 -3.04853,6.77118 -5.19009,8.91421 l -1.24106,1.24187 0.18778,1.8447 c 0.10327,1.01459 0.15041,3.15429 0.10475,4.7549 l -0.083,2.9102 -1.51797,2.25462 c -3.34309,4.96542 -5.50825,10.66174 -6.58447,17.32306 -0.34907,2.16064 -0.5021,8.98649 -0.26295,11.72897 0.26218,3.00654 0.83011,6.21305 1.24418,7.02471 0.4092,0.80211 1.54649,1.86846 2.35146,2.2048 0.92554,0.38672 2.08661,0.47167 3.01307,0.22048 z m -3.58529,-48.68823 c 4.33959,-0.99806 7.76701,-4.35277 10.04936,-9.83614 1.11996,-2.69073 1.48497,-4.15831 1.25066,-5.02847 -0.66504,-2.46964 -3.63431,-3.1598 -5.23578,-1.21696 -0.30898,0.37485 -0.68743,1.19685 -0.92361,2.00614 -0.85665,2.93526 -2.83006,6.11468 -4.51472,7.27376 -0.42898,0.29513 -1.25357,0.65794 -1.83247,0.80625 -0.93757,0.24019 -1.19019,0.24095 -2.31239,0.007 -1.3228,-0.27582 -3.14452,-1.11631 -4.62136,-2.1322 -1.48054,-1.01842 -2.73344,-1.03587 -3.92384,-0.0546 -1.19593,0.98578 -1.49516,2.46018 -0.76203,3.75461 0.47946,0.84649 1.94451,1.9108 4.0956,2.9753 3.20182,1.58448 6.06488,2.05847 8.73058,1.44538 z m 3.54746,-22.03395 c 2.71608,-0.78115 4.86585,-2.8144601 5.8152,-5.5001901 0.48974,-1.38547 0.52849,-3.82081 0.0825,-5.18883998 -0.65386,-2.00590002 -2.0813,-3.84076002 -3.80115,-4.88606002 -1.93485,-1.17598 -4.89366,-1.46148 -7.09484,-0.68458 -3.22418,1.13796 -5.40446,3.93436 -5.71389,7.32854 -0.34165,3.7474 1.98733,7.40224 5.5392,8.6926901 1.2561,0.45636 3.97891,0.58186 5.17296,0.23844 z"
         id="path5311-4-0-3"
         inkscape:connector-curvature="0" />
      <path
         style="fill:#000000;stroke-width:3.77952743"
         d="m 167.76122,88.445699 c -0.46505,-0.31218 -0.84542,-1.22442 -0.84542,-2.02758 0,-2.98782 14.60836,-95.1337701 15.27299,-96.3381901 0.45276,-0.8204999 1.16711,-1.2527599 2.07026,-1.2527599 1.95035,0 2.62168,1.1703 2.22473,3.8781799 l -0.32928,2.24638 h 6.79651 6.79651 l 0.28419,-1.53113 c 0.51234,-2.76047 1.15888,-4.0620299 2.24851,-4.5265899 1.46254,-0.62356 2.70767,-0.16454 3.06403,1.1295399 0.35447,1.28718 -14.04426,94.8182201 -14.89247,96.7381501 -0.73005,1.65256 -2.16085,2.29526 -3.66929,1.6482 -1.04704,-0.44913 -1.12734,-0.73724 -0.91509,-3.28304 l 0.23268,-2.79071 -6.79331,0.154 -6.79334,0.15401 -0.38864,2.2271 c -0.37545,2.15134 -1.83296,4.19382 -2.96781,4.15891 -0.30271,-0.009 -0.93078,-0.27232 -1.39576,-0.58445 z m 19.50805,-12.75224 c 0.18897,-1.06683 0.48268,-3.00859 0.65265,-4.31502 l 0.30906,-2.37534 h -6.78365 c -6.64189,0 -6.78863,0.0262 -7.02305,1.25275 -0.64887,3.39558 -1.06344,7.10328 -0.825,7.37809 0.14679,0.1692 3.2053,0.23822 6.79664,0.15342 l 6.52976,-0.15422 z m 1.86926,-12.11894 c 0,-0.22968 0.30114,-2.23407 0.66852,-4.45421 l 0.66794,-4.03664 h -6.87787 -6.8779 l -0.55388,3.8655 c -0.30464,2.12602 -0.55388,4.13042 -0.55388,4.45422 0,0.38573 2.33183,0.58872 6.76326,0.58872 3.71977,0 6.76349,-0.18794 6.76381,-0.41759 z m 2.47851,-15.71992 c 0.18899,-1.06683 0.4827,-3.00858 0.6527,-4.31502 l 0.30906,-2.37533 h -6.76032 c -7.54822,0 -6.95126,-0.35218 -7.55004,4.45421 -0.17166,1.37802 -0.42151,2.95095 -0.5552,3.4954 -0.22606,0.92059 0.24016,0.97907 6.65855,0.83516 l 6.90163,-0.15473 z m 2.28513,-14.85648 c 1.07656,-6.17834 1.53037,-5.7533 -6.14268,-5.7533 h -6.69245 l -0.5539,3.8655 c -0.30465,2.12602 -0.55388,4.13042 -0.55388,4.45422 0,0.38545 2.31201,0.58871 6.69657,0.58871 h 6.69656 z m 1.726,-11.46027 c 0.65425,-3.58752 1.23923,-7.21437 1.23923,-7.68309 0,-0.3094 -2.80651,-0.52937 -6.75404,-0.52937 -6.61445,0 -6.75878,0.0259 -6.98252,1.25274 -0.65423,3.58752 -1.23923,7.21438 -1.23923,7.6831 0,0.30939 2.80652,0.52936 6.75405,0.52936 6.61445,0 6.75878,-0.0259 6.98251,-1.25274 z m 2.60498,-16.2107301 c 0.93398,-5.84205998 1.48135,-5.36437998 -6.14706,-5.36437998 h -6.71367 l -0.53269,3.52545998 c -0.88688,5.86979 -1.44282,5.38297 6.14711,5.38297 h 6.67974 z"
         id="path4640-7-7-6-9"
         inkscape:connector-curvature="0" />
      <path
         inkscape:connector-curvature="0"
         id="path5096-7-2"
         d="m 236.86252,2.4786119 c 0.62866,0.1533208 1.07101,-0.2025158 1.10757,-0.8909393 0.017,-0.3207091 0.0195,-0.3228891 0.51994,-0.4533852 0.5004,-0.1304845 0.50366,-0.1298011 0.67513,0.1417478 0.36808,0.5829014 0.92787,0.6773957 1.4016,0.2366082 l 0.28116,-0.2616049 0.45505,0.2668064 0.45504,0.2668027 -0.091,0.3731046 c -0.15331,0.6286622 0.20251,1.0710175 0.89094,1.1075829 0.32071,0.017025 0.32289,0.019535 0.45338,0.5199297 0.13049,0.5004021 0.12982,0.5036562 -0.14174,0.6751315 -0.5829,0.3680865 -0.67741,0.9278752 -0.23661,1.4016056 l 0.26161,0.2811629 -0.26681,0.4550457 -0.2668,0.4550384 -0.37311,-0.090997 c -0.62867,-0.1533139 -1.07101,0.2025159 -1.10757,0.8909394 -0.017,0.3207091 -0.0196,0.3228921 -0.51995,0.4533809 -0.50039,0.1304961 -0.50365,0.1298054 -0.67512,-0.1417362 -0.36809,-0.5829057 -0.92787,-0.6774105 -1.40161,-0.2366199 l -0.28117,0.2616134 -0.45503,-0.2668027 -0.45505,-0.2668064 0.091,-0.373113 c 0.15331,-0.6286623 -0.20252,-1.0710102 -0.89094,-1.1075713 -0.3207,-0.017032 -0.32289,-0.019535 -0.45338,-0.5199414 -0.13049,-0.5003947 -0.12981,-0.5036518 0.14175,-0.6751271 0.5829,-0.3680866 0.6774,-0.9278679 0.23661,-1.4016056 l -0.26161,-0.2811629 0.2668,-0.4550384 0.26681,-0.4550458 z m 1.40465,2.5437937 c 0.11661,0.4472067 0.16759,0.5159693 0.54775,0.7388643 0.38015,0.2228957 0.46506,0.2337804 0.91226,0.1171825 0.4472,-0.1166165 0.51596,-0.1675922 0.73885,-0.5477451 0.2229,-0.3801529 0.23378,-0.4650622 0.11719,-0.912255 -0.11662,-0.4472037 -0.1676,-0.5159692 -0.54775,-0.7388649 -0.38015,-0.2228951 -0.46507,-0.2337841 -0.91226,-0.1171819 -0.44721,0.1166189 -0.51597,0.1675952 -0.73886,0.5477481 -0.2229,0.3801529 -0.23378,0.4650623 -0.11718,0.912252 z m 6.17112,-11.2284412 c 1.06621,0.2370081 1.82893,-0.0058 2.2407,-0.7133247 0.0981,-0.1686652 0.21915,-0.660346 0.27242,-1.1070048 l 0.0958,-0.8036201 0.9855,-0.2569837 0.98548,-0.2569992 0.47608,0.654474 c 0.26461,0.3637696 0.61033,0.733782 0.77831,0.8330118 0.70495,0.4161631 1.48902,0.2557659 2.30373,-0.4717245 l 0.51266,-0.4577889 0.92926,0.5448504 0.92925,0.5448504 -0.14913,0.6709382 c -0.237,1.0662176 0.006,1.8289306 0.71333,2.2407162 0.16866,0.098072 0.66035,0.2191399 1.10701,0.272407 l 0.80361,0.095847 0.25699,0.9854995 0.25698,0.9854846 -0.65447,0.4760818 c -0.36377,0.2646093 -0.73377,0.6103281 -0.833,0.7783177 -0.41627,0.70489004 -0.25577,1.48900729 0.47173,2.303709 l 0.45777,0.5126661 -0.54485,0.9292553 -0.54485,0.9292554 -0.67093,-0.1491294 c -1.06621,-0.2370081 -1.82893,0.00581 -2.24071,0.7133352 -0.0981,0.1686652 -0.21915,0.660346 -0.27242,1.1070048 l -0.0959,0.8036201 -0.98549,0.256988 -0.98549,0.2569837 -0.47607,-0.6544733 c -0.26461,-0.3637591 -0.61033,-0.733782 -0.77832,-0.8330013 -0.70495,-0.4161631 -1.48901,-0.2557659 -2.30372,0.4717267 l -0.51267,0.4577846 -0.92925,-0.5448504 -0.92926,-0.5448504 0.14914,-0.6709339 c 0.237,-1.0662198 -0.006,-1.8289433 -0.71334,-2.2407184 -0.16866,-0.098072 -0.66034,-0.2191399 -1.107,-0.2724175 l -0.80362,-0.095847 -0.25698,-0.985484 -0.25699,-0.98548894 0.65448,-0.47608175 c 0.36376,-0.26460931 0.73377,-0.61032381 0.833,-0.77831771 0.41627,-0.70489 0.25577,-1.4890178 -0.47173,-2.3037196 l -0.45777,-0.512666 0.54485,-0.9292554 0.54485,-0.9292554 z m 2.99582,4.4890561 c -0.2131,2.2482974 2.24817,3.6914124 4.1061,2.40752908 0.30677,-0.21198253 0.5067,-0.4351545 0.72804,-0.81266516 0.74342,-1.26791642 0.34119,-2.81034972 -0.92672,-3.55376662 -1.26792,-0.7434169 -2.81036,-0.341201 -3.55377,0.9267155 -0.22135,0.3775106 -0.31848,0.6609555 -0.35365,1.0321872 z"
         style="fill:#000000;stroke-width:3.77952766" />
      <path
         inkscape:connector-curvature="0"
         id="path4996-6-7-7-9"
         d="m 228.96161,8.2468944 c 2.71854,0.7254148 5.30454,2.3942186 7.60306,4.9059346 4.43614,4.847484 9.89891,6.079274 16.5527,3.732444 12.19494,-4.301232 16.10761,-20.6715206 7.01876,-29.365815 -8.61417,-8.240216 -21.86189,-4.765014 -26.56856,6.9696158 -0.95475,2.3803776 -3.12191,5.73680459 -4.81593,7.4587565 -4.42065,4.4934263 -4.40146,5.0682041 0.20997,6.2990641 z m 5.27,-12.3816485 c 2.22053,-5.5362061 6.53736,-9.6990259 11.17976,-10.7809329 6.40204,-1.491952 9.93973,-0.433302 14.20365,4.25047 4.62009,5.075072 5.5401,13.0689528 2.15128,18.6927133 -2.5373,4.2107217 -8.64397,8.4137967 -12.48139,8.5907547 -4.253,0.196077 -10.96133,-2.840897 -13.12579,-5.942278 -1.33446,-1.9121404 -3.08742,-2.9585664 -5.88754,-3.5145318 l -3.98726,-0.7916508 3.15212,-3.2041203 c 1.73366,-1.7622914 3.89149,-5.0474713 4.79514,-7.3004557 z"
         style="fill:#000000;stroke-width:3.77952766" />
    </g>
  </g>
</svg>
